<svg xmlns="http://www.w3.org/2000/svg" viewBox="0 0 600 400"><defs><style>.cls-1{isolation:isolate;}.cls-2{fill:#9c73ba;}.cls-3{fill:#802eba;}.cls-4{fill:#eaff9f;}.cls-5{fill:#ffcbaa;}.cls-6{fill:#ff780a;}.cls-7{fill:#ffa200;}.cls-8{fill:#ff0;}.cls-9{fill:#ffe4d6;}.cls-10{opacity:0.1;mix-blend-mode:multiply;}.cls-11{opacity:0.5;}.cls-11,.cls-17{mix-blend-mode:screen;}.cls-12{fill:#fff;}.cls-13{fill:red;}.cls-14{fill:#36004a;}.cls-15{fill:#1900df;}.cls-16{fill:#9fc2ff;}.cls-17{opacity:0.54;}.cls-18{fill:#efff5f;}</style></defs><g class="cls-1"><g id="Layer_1" data-name="Layer 1"><ellipse class="cls-2" cx="340.31" cy="231.95" rx="154.1" ry="261.24" transform="translate(19.2 489.83) rotate(-73.05)"/><ellipse class="cls-3" cx="284.61" cy="153.14" rx="283.56" ry="138.08" transform="translate(-26.99 67.35) rotate(-12.89)"/><path class="cls-4" d="M284.38,381.24a112.15,112.15,0,0,1-48-11.15,105.62,105.62,0,0,1-18.56,1.68l-.92,0-.9,0a108.31,108.31,0,0,1-45.17-9.8,105.15,105.15,0,0,1-21,2.13c-.45,0-.88,0-1.31,0s-.89,0-1.35,0a123.06,123.06,0,0,1-60.67-15.88c-20.06-11.59-34.82-28.49-42.68-48.89C36.77,281,30.26,244.74,28.28,225.64,23.49,179.33,48,142.78,63.08,125.11c23-27,53.76-41.85,86.63-41.87a105.73,105.73,0,0,1,21.54,2.2,107.53,107.53,0,0,1,39-10.33c2.45-.17,4.92-.26,7.37-.26a106.69,106.69,0,0,1,35,5.89,25,25,0,0,1,7.52-6.58c.7-.86,1.45-1.77,2.27-2.73L274,57.19,255.79,37.06l21.93-5L276.5,7.87l25.1,18.71,5.22-1.2,6.23,3.48a89.1,89.1,0,0,1,15,10c7.36,6.25,11.81,14.77,12.17,23.35a51.16,51.16,0,0,1-.91,12.14l-.2,1.16-.75,4.64a105.84,105.84,0,0,1,33.31-5.38,107.1,107.1,0,0,1,47.16,10.89,107.19,107.19,0,0,1,23.29-2.59c67.05,0,121.63,63,121.68,140.37v1.35c0,7,0,15-1.89,23.09-3.35,14.26-12.28,43.23-19.65,58.35a99.09,99.09,0,0,1-42.1,43.49,119.2,119.2,0,0,1-56.94,14.22h-1a105.84,105.84,0,0,1-23.83-2.72,108.37,108.37,0,0,1-46.51,10.46h-.16c-2.3,0-4.65-.09-7.41-.28a108.21,108.21,0,0,1-24.71-4.63,112.71,112.71,0,0,1-54.6,14.47h-.68Z"/><path class="cls-5" d="M284.38,372a102.9,102.9,0,0,1-46.7-11.58,95.43,95.43,0,0,1-19.87,2.11l-.92,0h0l-.89,0a99.15,99.15,0,0,1-44.07-10.26,95.76,95.76,0,0,1-22.07,2.59c-.42,0-.81,0-1.2,0h-.24c-.41,0-.81,0-1.22,0a113.53,113.53,0,0,1-56-14.64C73,329.68,59.59,314.4,52.49,296c-6.69-17.37-13.11-53.19-15-71.32-4.44-42.87,18.54-77,32.64-93.56,21.2-24.89,49.46-38.6,79.57-38.62a95.11,95.11,0,0,1,22.7,2.71,98.53,98.53,0,0,1,38.52-10.85c2.23-.16,4.49-.24,6.73-.24a97.61,97.61,0,0,1,36.25,7c1.43-.57,2.88-1.1,4.34-1.61a1.67,1.67,0,0,1,.08-.2,15.72,15.72,0,0,1,7.84-7.84l.05,0c1-1.25,2.07-2.56,3.34-4l7.94-9.76.24.35,2.47-2.71c2.41-2.62,4.9-5.33,6.53-7.47a34.82,34.82,0,0,0-2.84-3.48L273.28,42.57l14.09-3.23-.62-12.28,12.75,9.5,5.91-1.35L308.53,37A81.4,81.4,0,0,1,322,45.88c5.46,4.64,8.74,10.77,9,16.8a42.05,42.05,0,0,1-.8,10.12L330,74l-1.36,8.43-.1.75c-.32,2.28-.62,4.45-.81,6.51.1.29.23.65.33,1s.31.88.47,1.37c.8.34,1.59.69,2.38,1.05a97.6,97.6,0,0,1,86.81,2.43,97.62,97.62,0,0,1,24.44-3.13c62,0,112.36,58.81,112.4,131.1v1.36c0,6.83,0,13.89-1.64,21-3.33,14.14-12.15,42.44-19,56.41a89.87,89.87,0,0,1-38.22,39.41,109.76,109.76,0,0,1-52.5,13.09h-.94a96.8,96.8,0,0,1-24.87-3.25,99.43,99.43,0,0,1-45.47,11h-.16c-2.08,0-4.23-.08-6.77-.26a98.62,98.62,0,0,1-26.42-5.5A103,103,0,0,1,285.06,372Zm3.11-315.26Z"/><path class="cls-6" d="M543.88,243.64c1.52-6.45,1.4-13.31,1.39-20.19,0-67.34-46.24-121.87-103.13-121.84a87.72,87.72,0,0,0-25.57,3.8,88.65,88.65,0,0,0-85.67-2.09,93.59,93.59,0,0,0-10.33-4.51c-.28-3.74-2.34-6.74-2.16-9l.06-.8c.24-2.61.62-5.29,1-7.94l1.39-8.53a39,39,0,0,0,.88-9.36c-.09-3.42-2.26-7.26-5.77-10.25A72.89,72.89,0,0,0,304,45l-4.36,1h0l-2.27.52c-.13-.11-.24-.2-.38-.3l0,.38-1.77.4-4.49,1c2.36,2.6,4.43,5.21,5.31,7.58A6.66,6.66,0,0,1,295,62.2c-3.11,4.47-8.89,10.1-13.49,15.53-1.49,1.73-3,3.44-4.48,5.18v0l-.34.42c-1.28,1.5-2.54,3-3.75,4.59-1.56,2-4.73,1.92-6.09,5.1-.19.42-.85,3.15-1,3.72l0,.11a90.54,90.54,0,0,0-11.84,4.31,88.75,88.75,0,0,0-36.25-7.75q-3.06,0-6.08.21a90,90,0,0,0-38,11.51,85.09,85.09,0,0,0-23.85-3.34c-28.29,0-53.91,13.52-72.53,35.36-18.83,22.1-34,52.93-30.47,86.6,1.82,17.54,8.11,52.58,14.42,68.93,13.43,34.83,50.39,52.93,86.06,52.91.46,0,.91,0,1.36-.05s.86.05,1.29.05A87.56,87.56,0,0,0,173,342.4a90.55,90.55,0,0,0,43,10.83c.29,0,.57,0,.86,0s.63,0,.95,0A86.53,86.53,0,0,0,239,350.58a92.79,92.79,0,0,0,97.33-3.47c.4-.26.77-.54,1.17-.81a89.74,89.74,0,0,0,28.17,6.61c2.05.14,4.12.24,6.2.24h.08a91.11,91.11,0,0,0,44.43-11.67,87.59,87.59,0,0,0,25.92,3.92h.94c33.52,0,67.19-16.09,82.39-47.29C531.87,285.26,540.58,257.65,543.88,243.64Z"/><path class="cls-7" d="M511.63,272.68c-1.62-.76-3.2-1.54-4.75-2.36a99.27,99.27,0,0,1-24.68-17.93c-.41-.43-.83-.86-1.23-1.29a84.69,84.69,0,0,1-17.57-27.66,293.65,293.65,0,0,1,35.18-15.17v0a57.1,57.1,0,0,0,12.26,16h0a60.88,60.88,0,0,0,15,10c1.38.68,2.82,1.3,4.28,1.9h0A227.58,227.58,0,0,1,511.63,272.68Z"/><path class="cls-8" d="M449.61,231.13l.45-.26c4.33-2.6,8.79-5.07,13.34-7.43A88.88,88.88,0,0,0,481,251.1c.4.43.82.86,1.23,1.29a94.78,94.78,0,0,0,24.65,18c1.56.82,3.15,1.59,4.78,2.33-3.08,4.89-6.31,9.61-9.76,14.14C490.72,301.15,436.89,243.79,449.61,231.13Z"/><path class="cls-9" d="M530.16,236.12h0c-1.44-.62-2.87-1.28-4.25-2a67.53,67.53,0,0,1-15-9.91h0a52.08,52.08,0,0,1-12.26-16v0c18.8-8.26,32.49-11.86,38-8,.18.14.37.29.54.44,4.18,2.73,1.06,15.59-6.93,35.17Z"/><path class="cls-10" d="M449.61,231.13l.45-.26c1.91,8.54,7.24,20.11,20.56,33.06,23.4,22.75,32.56,12.66,36.23,6.42l0,0c.68-1.17,1.18-2.21,1.54-2.85,1.14-2,9.95-17.36,17.44-33.25,0,0,0,0,0-.06,6.35-13.46,11.74-27.31,10.73-33.86.18.14.37.29.54.44,4.18,2.73,1.06,15.59-6.93,35.17l-.07.21h0a227.58,227.58,0,0,1-18.52,36.55c-3.08,4.89-6.31,9.61-9.76,14.14C490.72,301.15,436.89,243.79,449.61,231.13Z"/><g class="cls-11"><path class="cls-12" d="M455,232.39q8.25-4.48,16.7-8.57t17-8l8.59-3.77c2.89-1.2,5.76-2.45,8.68-3.58s5.84-2.26,8.8-3.3c1.49-.49,3-1,4.48-1.44.75-.22,1.5-.45,2.26-.65l2.31-.45-2.23.7-2.19.84c-1.46.53-2.89,1.19-4.32,1.79q-4.31,1.84-8.58,3.77l-17.09,7.68L472.28,225Q463.7,228.83,455,232.39Z"/></g><path class="cls-7" d="M502.16,303.21c-1.13-1.4-2.22-2.79-3.26-4.2a99.08,99.08,0,0,1-14.47-26.85l-.55-1.69A84.37,84.37,0,0,1,480,237.93a292,292,0,0,1,38.27,1.57v0a56.93,56.93,0,0,0,4.13,19.69h0a60.94,60.94,0,0,0,9.2,15.49c1,1.21,2,2.4,3,3.56v0A229,229,0,0,1,502.16,303.21Z"/><path class="cls-8" d="M464.28,238.88l.51,0c5-.46,10.13-.76,15.25-.9a89.11,89.11,0,0,0,3.84,32.54l.55,1.69A94.63,94.63,0,0,0,498.86,299q1.58,2.12,3.3,4.18c-4.9,3.06-9.86,5.91-14.92,8.51C471,319.79,447.32,244.77,464.28,238.88Z"/><path class="cls-9" d="M534.7,278.29h0v0c-1-1.18-2-2.39-3-3.6a67.79,67.79,0,0,1-9.26-15.45h0a51.94,51.94,0,0,1-4.13-19.69v0c20.53.7,34.43,3.4,37.74,9.31.1.21.21.41.3.63,2.57,4.27-5.81,14.5-21.49,28.68Z"/><path class="cls-10" d="M464.28,238.88l.51,0c-2,8.53-2.19,21.27,4.2,38.71,11.23,30.64,23.85,25.52,29.87,21.49l0,0c1.12-.75,2-1.47,2.62-1.89,1.91-1.35,16.49-11.34,30.13-22.41l.06,0c11.55-9.38,22.41-19.52,24.34-25.86.1.21.21.41.3.63,2.57,4.27-5.81,14.5-21.49,28.68l-.16.17h0a229,229,0,0,1-32.53,24.92c-4.9,3.06-9.86,5.91-14.92,8.51C471,319.79,447.32,244.77,464.28,238.88Z"/><g class="cls-11"><path class="cls-12" d="M468.6,242.35q9.38-.47,18.76-.49c6.25,0,12.51,0,18.76.19l9.38.32c3.13.18,6.25.3,9.38.55s6.24.48,9.36.83c1.55.21,3.11.36,4.66.64.77.14,1.55.25,2.31.4l2.28.6-2.32-.34-2.33-.2c-1.55-.15-3.12-.17-4.67-.25-3.12-.14-6.24-.24-9.36-.33l-18.73-.48-18.74-.58C481.09,243,474.85,242.71,468.6,242.35Z"/></g><path class="cls-13" d="M112,285l-2.68-1.22,1.85-.94-1.64-4.44,3.81-2-.4-1.69.77-2.46,1.75-.33,2-1.82.19-2.19,1.38-2.59-.44-5.35-.09-6.81,2.75-6.38,1.88-4.36-2.27-3.87,3.67-7.59,1.3-3.16.75-.85-.42-3.05-1.72-4.31,2.28-1.84,2.86.37,1.28-3.93,1.59-.2.65-2.84,2-1-.38-2.85,2.8,1.08.7,2.84-2.68,4.53-2.65,4.66.3,1.86,2.1.1,6.18,3,.36,3.56-1.19,5.63,2.09,4.65-2.44,3.06-1.21,6.35,4.14,8.4-2.78,8.59,2.92.27-1.57.91,1.23.51,2,1.73-2.68,1.92.58,1.89-1.06.68-1.63.54,1.86,4.39-.76,10.22L142,292l.41,4.85L141.36,300l.3,1.31-2.5,2.78.54,3.91-2.44,3.52.14,3.59-.9.25,1.27-.1-2.63-1.88-.21-2.16,1-2,1-1.47-.69-1.4,1.56-6.34.26-6.84-2.57-2.4L133.82,288l2.91-2.39-.31-2.11,1.62-6.92-3,1,.71.47-3-1.28-.71.6-1.71,2.92-2.19-1-.61,3.66L124,284.23l-2.38.83-1.44,2.27-1.45-1.46,2.19,2.44-.68,3.31-.86,5.11-1,2.21-2,3.87-.82,2.28.74,3.47L115,310.51l-.9,2.82.5,2.72L113,319.29l-.33,2-1.69.41,1.06-1.82-.44-1.66-.44-4.15-2.13-5.63,4-5.7L112.3,299l1.78-1.52-2.45-3.67.47-3.9,1.16-.78-.92,2.06-.11-2.4-2.82-1.24,1.53-1.16Zm13.15-12.75,1.67-3.16,3.46.89.7-1.59,2.56,2.09,1.23-2.14-1-.85,1.24-.17,1.55-3-.14-3,.89-3.61-1.83-3.13-1-3,1.49-3,1.14-2.3-3.17-.55,1.26-1.86-.64-2.4,0-2.53-.9-2.93-2.71,2.26.59,1.49-4.67,6.07-.33,2.31L124,252.74l.07,7-3.36,9.18,2.52,1.4.48.74v0l-1,1.23,1.56,1.6Z"/><path class="cls-13" d="M158.21,272.69l1.63,4.17,3,6.19,2.92,4.39,2.51,4.53,3.2,1.6,1.92,4.05,3.85,1.56,1.13,3.73,1.31,3,4,1.77-1.09,4.49L184.4,318l-.25,2-1.28-.2.61-1.71-1.35-1.66-4.17.7-4.53-3.66-2.34-3.7-3.36-2.94.32-3.63-4.38-1L161.42,299l-1-2.82-1.35-6.22-4.23-1.82,3,3.41-2.64,8.32-.17,6-1.29,5.92-.89,1.61-.09,1.67-1.28-2.72L150,308.75l1.9-7.58-1-8.58,1.41-3.42-1-2.91L149,281.05l-1.51-3.84.7-2.83L148,271.6l2.76-2.51.16-.51-.7-1.78,3.61-1.54-3.46-1.56,2.81-6.6-2.2-6.67,1.42-1.56,1.5-2.89-3.06-2.35,3.29-2.2-1-2.52-.36-1.74.57-2.61-2.76-2.7,1.84-2.84,1-2.68-.06-4.61.6-5,3-2.41,2.15-3.64,1.91,2,1.95.68,3,.69,1.4.48,1.13.76,2.62,0,.18.7-.24,3,2.82-1.53,1,.79,1.48,1.37,1.9,4,2.31,3.85.65,5.54-.19,4.84,2.6,2.12-1.56,2.92.36,5.18-5.05,4.27-2.2,4.94-2.5,2.86-1.9.1-1.93,1.5-2.79,3.61-3.88,6.58ZM156.53,239l1.07-2.4,1-.29.07,1.13.09,2.48,1.66,2.32L159.27,247l1.25,8.88-1.93,5.42-1,2.37,2.06.13-.9,1.66,6.83-8.52.57-.49,1.43.23,1.91-.45,4.49-5.52-.71-5.88.37-3.74-.57-4.93-5.33-3.93-3.73-5L159.7,229l-2.28.6-1.66,3.76-2.21,3.92Z"/><path class="cls-13" d="M189.22,241.94l.19-3.4.14-.58-2.47-5.89,1.42-1.29,1.56-1.37-1.7-1.15-.46-.84-.24-8.37.86-2.7,3.06-2.19.82-2.91,1.55-1.66.43-1.19,1.4,1.92.45-.64.82,3.32-2.17,3.1,1.77,3.43-2.14,3.34,2.78,8.21,1.85,8,.92,9.08,2.79,8.73,1.23,2.65,4.18-1.45L212,247.9l6.18-8.17,2.11-8.13,1.09-6,3.8-3.93.07-1.59.51-1.45-.89,3.37,3.83,5.44,0,7L226.84,240l.84,5.76L225,251.55l0,6.19-3.87,5.05,2.08,4.38.52,2.41-1.94,3.09-2.08,3.24-.65,3.65-.06,4.79,3.12,1.45L220,287.35l-2,7-1.54,7,1,1.57.25,2.07-1,2.54-3.85.57,1-.14.94.78-2.31-.49-.56-1.21.41-6.9,2-5.53.72-5.65,1.48-7.67-.75-8.9,2.74-8.58-.92-4.53-.17-6.1,1.38-2.86,1-1.84-1.54-.86.05,1.28-.23-.35L214.59,251l2.12,3.87L212.06,256l1.46,5.48-5.82,3.71-.63.91-.31,2.37-1.91,4-3.14-.24-4.24.54-3.08-6.28.55-4.44.06-4.62-2.29.4L191.19,264l-.6,7.91-.78,7.89-.38,8.42,2.36,8.63-4.2,7.72-.2,3.31.32,1.52L186,308.7l-1.58,1.07-.79,1.87,2.12-1.2-1.09-2.77.85-2.79.44-4.17-1.27-8.19-.34-2.76,3.09-2.69-2.91-1.37,2.58-1.57-2.63-5.91,2.69-5.68,0-5.94.52-6-.29-3.26,1.08-6.31Z"/><path class="cls-13" d="M226.49,285l.8-1.32-1.42-.83,1-4,.75-2.86,1.32-.26,1.68-1.23-1.51-3.27,2.15-1.23,1.26-2.16,1.51-2.55-2.14-5.63,2-6.46,3.81-6.23-1.78-5,.13-3.4,3.06-7.81,1.7-3,1.46-1L240,223.8l1.22-2.76,1.85.34,2.19-3.14,1.45-3.6-.37-1.57-.74-3.61L248,208.1l1.69,2.49,1.65-1.57.81,2.18-1,4.7-2.23,4.49,3.29.41-2.63,2.27,6.92,2.29-3.06,4.08,3.55,5-2.73,5,.27,2.77.5,6.38,3.95,8.4-4.7,8.54,4.29.28-1.37-1.24.78,2.76.25,1.69.46,2.27-3.09-.49.06,1.89,1.14,1.23-.42,4.51,1.26,10.3-.12,3.3-2.7,4.49-.48,3.23-.33,1.9,2.14,2.52L254.7,308l-.91,3.75,1,4.75-3.34,1.75.39-2.72-3.56-2.15,2.51-2.07-.39-2.1L249.16,308l2.35-1.64-2.1-6.5,0-6.48,3.45-2.67-.41-2.66-.06-2.36.22-2.23-2.53-6.61-.49,1.63,1-.67-2.42-.6-.82,1.12-2,2-1.89-.54-2.86.3-1.17,4.7-3.63-1-.66,3.49-1-1.27,1.82,2.26L232.4,291l-2,4.81,3.57,3.2-3.38,3.65,1.82,2.8-.91,3.11-1.14,2,.37,3,.59,2.84-2.59,3.07-1.46,1.37H226l-2.07.39,2.93-3-1-4.18-1.52-5.56,1.11-6.14.13-3.48L226,297l.27-3.21.15-3.85,1.62.27-1.09-.56.75-1-3-1.07,3.09-.93Zm13.64-13.23,2.94,0,2.24-2.1,1,1,1.82-1,2.13-.07,1.14-.9-2.94-1.4,1.83-3,.91-3,1.05-3.6-3.57-3,1.12-3.05,2.56-3.09-2.59-2.21-.73-.6.65-1.67-.23-2.52.68-2.78-2.42-1.9-1.85-.85-3.11,2.53-1.64,7.24-.6,2.14-.11,5.08,1.6,7.33-3.5,9.36-3.58.43,2.45.91.41.5-.1.13,1.39,1.23Z"/><path class="cls-13" d="M290,214.28l2.82-.52-.19,3.93,2.14.32,2.45,3.31,2,3.38-2.06,4.75,3.06,4,1.74,4.84L298,244.63l-3.35,2.82-2.4.41.31-3.09-.92-4.88.06-6.11-3.58-5-2.51-6.14-3,1.53-2.53,2.7-2.39,2.32.61,5.86.61,1.56-3.27.73-1,2.86-.55,4.09,1.62,3.94-1.87,2.9-3.7.36-.22,2.2,2.81,4.09-4,3.79,4,6.6-4.61,5.92.88,6,3.08,6,.7,6-3.15,4.73L271,299.4l4-.65.94,2.86,3.87-.47.74-4.64,4-1.2,1.29-6.27,2.34-.86-2.06-3.9,4.6-2.52-2.47-4.93,2.07-3.7,3.58.7,3,.79-.75,4.28.9,2.47-.47,2.36-1.3,3.11-.86,4.49-1.29,5.55,3.76,5.2-4.35,7.17.15,8,1.63,2.49-3.53,3.55,1.67,2.89-1.34,1.72-.75,1.15L287,329l2,3.68-2.1,1.85-2.69-1.76.62-3.42.41-2.32,2.08-3.72,1.24-3.11-2.39-4.86,1.5-4.46,2-7.67-2.19-4.64,0-2-1.53.22,2.48-.22-2.55,2.73-2.75,5.52-2.87,2.44-1.93,4.62L273.5,314l-1.49-2.3-.83,1.84-3.39-1.2-2.36-2.72-2.22-3.73-1.42-5.18,2.22-4-2.65-6.48,3.3-3.7.38-4.26-1.14-10.86-1.78-8.33,1.42-8.09,3.9-7.49.28-6.75,2.89-6L272,228l2.55-4.41,3.06-1.22,3.27-1.26,2.31-2.11-.55-3.2,2.15-1,3.53.17,1.2-.88Z"/><path class="cls-13" d="M329.73,292l2.74,6.17-.4,1.93-3.19,0-1.5,1.8-2.51,2.33-.13,3.65-1.77-.19-2.45-.34-2.35,4-3,.75-2.2.76-2.45.7-2.07-.27-.83.62-1.26-1.26-2.43,1.46,1.4-2-.4-2.82-.82-.69-3,.35,1.2-3.82,1.47-3.55-1-6.55.68-1.28-2.19-1.7-.33-1.23.07-.94,2.26-6.82-1.43-9.86,1.9-7.48-.76-6.5,1.75-8-.3-8.14,3.66-7.68-.66-4.28-.07-4.59,3.76.62-2.9-2.68,1-2.27,1.25-1.08,1.55-1.35,2.51-.21-.55-3,3.12-3.09,3.48-1.55,1.69-.19,1.86.22,1.24-.47.9-.26.07.5.68-1.64,1.22-.35.68,3,1.44-3.74v4.83l1.7,3.31-1.32,7.08-.28,4.46-.65-4.19L322.91,223l-2.7,3.67L320,227l-2.21.34-.84-1.69-1.49,2.09L314,233.08l-2.16,1.64,2.94,2.79-2.64,9.84-.14,8,.65,3.39-.47,1.28-1.8,1.11,1,1.19-.08,1.11.7-3.24,2.32-3.22,2.18.22,2.45-.23,1.38.06,3.56-2,1.15,1,2-2.78,1.36,1.6-.54,2.37,1.35,2-.8,6.44-.74,1.75-2.48-.76-5,.41-5.24.43-3.91,5.16-3.55,6.69,1.22,3-.47,4.74.18,2.15L306.6,295l2.55,4.94.11.39-1.63.84,3,.65,1.16.43,2.12-2.48,2.38.3,2.13-.11,1.86-3.35,2.76,2.85,1.47-2.73,2.93-.24,1.22-2.49.68-1.15Z"/><path class="cls-13" d="M367.46,292.05l2.68,6.1-1.95,3.18L365,303.22l-1.23.28-1.47.53-2.39,1.53-4.34-.75-4.64,7.47-4.54,2.41,1.56,2.95-4.5.5-4.37.17-1.72.58,1.86-3.05L337,313.48l4-1.88-1.9-4.43,3.11-1.32,4.44,1.3-1.55-3.82,3.4.51,1.59-2.63,2.1-3.59,1.39-5,2.17-1.71-.31-2.15.09-1.85,2.11-4,3.09-5.66-1.37-1.71,2.55-.63,1.66-5.41-.16-8.37-3.79-6.5L357.52,247l-2.74-6.08-3.72-3.85-.56-4.48-2.23-.3-2.17,9.24-.26,7.75-1.71,7.58L342.55,265l1.65,8.45-3.46,8.17,2.25,3.82-.77,7.07-2.48,6.89-1.14,7.68-2.56.23.57.59.27-2.22-.67-4.14.41-1.25-1.64-9.5-.55-9.56,2-9.93,1.13-8.6-1-3.63,1.63-3.34-.3-4.66-.18-5.37.22-2.9.42-2.33-.77-3.59,3.38-2.6,2-2.84-.7-2.25,3.09-.24-3.39.46-.53,0-.72-1.81-2.1.27-3-3-1-2.47.78-2-.83-2.93,1.76-2.7-1.76-1.12,1.09-.49-.73-.47L337,211l.69,1.56.29-2.41,2.28,1.31v2.23l1.36.67,1.17,2.07,2-.61,1-2,1.43.13-.39,4.12,2.55-1.8,1.28.82,5.07,9.16,5.9,5.9,1.82,5.61,1.41,5.56,1.95,5.72-.3,6,2.86,7.39-2.73,7L363,275.88l-1.84,6-.63,6.49-.91,6.56-3.38,5.42,1.45.08,1.26-2.46,4.55-2.82,4.29.18Z"/><path class="cls-13" d="M404.55,292.08l2.06,6-2.41,2-2,3.33-1.09.51-1.3,1.78-2.78.15-4.9-1.62L389,313.18l-4.51,2.66,0,1.33-3.65,1.75-4.65-.5-1.1.11-1.38-2.43-.16-2.87,1.47-2.78,3.21-1.68,1.11-2.88,2.59-1,3,.84L383.66,302l2.36-1.59.85-4.12,4.14-3.55-.86-2.8,3.38-.84-.4-2,1.75-4.18-.09-6.72,2.74-.25-.08-1.79.91-4.93-.37-8.13.42-6.91L395,246.84l-4.42-5-1.23-6-3.84-1.24-3.21-4.05-.24,10.87,1.69,8-1,7.67L379.55,265l1.19,8.41-3.83,8.17,2.67,3.81-1.46,7-1.45,7-1.42,7.52-2.07,4-2.28-2.21.44-3.17,2.27-4-2.3-1.32.53-9.46-.56-9.56,1.23-10,.88-8.48,3-3.82-3.19-3.4,3.66-4.35-2-5.46.65-2.83,2.41-2.12-2.81-3.83,2.54-2.89,1.2-3.68.2-1.57-.27.17.34.52-.35-.74-.81-1.2-.13-1.8L375,222.64l-1-1.43-1.24-.77,1.3-3-3.1-2.14,2.18-1.6-1-.86.61-2.17,1.48.74,1.18,1.88.42-.49.72,1.42L379,212l-.46,2.71,1.85.48,1.59.71.94-2,1.09.64,1,1,.53,2.87,1.67-.59,8.12,6.43,4.42,7.4,3.21,5.2,2,5.8-.55,6.39-.26,6.07,1.72,7.32-1.21,7.2-1.88,7-1.5,6.26L398,288.49l-.64,6.7-5.13,4.73,2.33,0,1.3-2.47,4.75-2.42,2.74-1.45Z"/><path class="cls-13" d="M409.64,265.61l-1.4-2.26.89-3,.95-3.44,0-1.63.77-2.05,2.18-2.52-.59-3.8-.19-7.15,1.55-2.64.93-3.78,1.68-3.69-.1-5.24,3.14-4.65,1.83-4.1-.12,2.22.87,1,1.25,5.19-1.33,3.63-.85,1.59.77-2.5,1.41-4.22,4-1.73-.12-3.56,1.7,0,1.88-.33,1.89-.3-.34-3.21-.14,3,2.35,1.12,2.94-1.44,1.17,1.88.3,2.18,4.33,4.53L442,234.14l3,8.26,1.68,7.85-2.26,6.91,1.47,7.08-3.07,6.56L440.71,278l-1,7.7.63,2.1-4.31.71,2.66,1.31-2.43,1,.46,2.58-2.33,5.2-2.74,5-3.29,5.48-5,.73-.85,2.9-2.79.56-2.88-2.39-3.85.55-.46-1.31,1.44-3.3-3.56-2.31-.6-6.59.57-5.79.1-5.11-2-2.53.28-2.33,1.37-2.89-.47-4.2-.36-4.34,1.73-.44-2.79,1.33.36,1,0,1,1-1.45-1.51-1.32.7-2.48Zm21-36.62-1.77,2.1-1.9,1.17-3.48,3.26-.37,1.3-1.22,2-3.13,3.5,0,7.26.67,6.54L418,262.44l-.43,5.67-1.34,5.64,1,9.74L416,290.4l2,6.64,4.28,5.76,3.49-2.16,2.1-5.63,3.42-4.5,3.57-4.41.13-4.55,1.52-9,3.93-7.83L438.18,256l.34-4.31.89-3.07.62-1.91-3-.33,1.84-6.54-2.49-5.8Z"/><path class="cls-13" d="M456.39,233.43l-.15-4.74-2.93-2.92.19-3,1.46-2.05,2.19,1.06,1.82.76.21-4,.71,3,.93.92,1-1,2.3-1.76L462,216.25l2.57-.65-.32,2.87,1.5-.71,1.67,1-.5,1.73-2.35,2.89.21,3.74-.75,2.13-2.78,2.53.61,3,3.72,3.94,0,7.23.78,6.09,2.22,5.82-.68,7,2.66,6.38.73,6.26.31,6.37,1.22,9.54,3,1.52,1.27.34.71-2.77-.42-1.81L475,287.76l1.09-4.22.13-6.6,1.24-4.73L479,266.9l.31-5.63-.2-5.64.08-2-1.4-3.06.56-2.78,2.2-2-2.12-4.83.93-5,1.64-8.77-1-6.47,3.62-3.22-1.41-5.47,2.82-3.18.89,2.72,1.12-2-1.69,1.11.15,2.39,1.62,2.74-3,2.78,3.78,2.72-.59,3.83-.43,3.74-3.46,7.43,3.14,6.87-3.8,6.55,2.21,6.8-.63,6.66-1,7.31-.39,7.33-1.68,5.82-.37,6,2.37,7.4-4.21,7.9-.21,3.84-1.15,3.61-3.73.76-2.12-3.67-2.66-8.7.1-9.27-1-4.9-.41-1.67-4.35-1.57.83-8.42-2.9-5.14-1.16-5.59.1-3.21-2.19-2.23.69-.8,1,3.86-.66,5.18-.26,3.57-1.22,9-3,10.26-.51,3.86-1.67,3.93.71,2.68,1.19,4.38-2.11,3.83-2.58,5.32,2,3.41-2.86-.32-.41.84-.58.54-.32-.5-1.24-2.6-.63-3.31,2.94-5.23,1.84-5.72-.07-2.76.63-4.54L449.72,287l.3-2.34.17-3.3.23-7.82,1-8.81,2.4-8.71-1-7.6-.86-7.59Z"/><path d="M113.49,290.22l-.51-1.17,1.28-.94,3.35-3.67-.27-2.7.17-1,2-.85-1.66-3.45,2.33-1.23,1.4-2.08,1.24-2.62L121.29,265l2.31-6.43-1.21-7,2.61-4.33.29-3.37,3.47-7.54,1.3-3.25-1.1-.52L126.05,229l4.11-2.5,1.57-.12-.3-3.48,3.39-3.34L136,219l1.72-2.11.62-2,.14.93-.46-.34,4.36,1-4,4.27-1.4,4.91,3.26.67L138,228.7l4.87,4.3,1.35,1.4,1.67,5.32-1.8,4.92,3.05,3.07-.15,6.1.09,8.46-2.38,8.62,1,.68,0,.25,2.69-.09.17,2.56-3.35,1.63.23,1-1.22.85.14,1.53.74,4.4-1.25,10.14,2.76,3.47-2,4.6-1,3.17.13,1.74-2,2.55,3,4.08-3.17,3.44.69,4.07-1.86,1.73-2.51-1,3.2-3-1.71-2.09,1.21-2.07-.25-1.43,0-1.44.53-6.38,0-6.75-2.73-2.42.68-2.83-1.27-3,2.18-1.56,1.8-6.87L140,280.53l-.91,2.2-1.39.59-1.41.82-3.13-1.48-1.7,1.15L130,286.26l-3.4,1.81-.57,3.28-2.09,1.11L122.21,291l1.48,2.44-1.5,3-1.55,4.94,1.26,2.73.12,4.22-.57,2.43-2.84,2.81-1.42,2,.27,2.89,0,2.58.52,3.74-2.63.51-.56-.44-.72,1,1.37-2.43-2.14-4.31-.41-5.47,1.52-6.08-.1-3.51,2.56-1.52.23-3.21,1.46-4.18-1.43-1.35-1.38.83,1.37-1-2-.88,1.74-.9Zm15.43-15,1.62-1,3.62.32,1.23,3.41,2-2,1.53-1.29,1.45-.56-3.16-1.5,2-3,1.07-3,.76-3.62-3-3.08,1.41-3-2.5-2.83,1.85-2.48-.59-.74,1.09-1.81-.67-2.41-1.83-1.88-2.37-.77.15-2.94-2.79,2.87.69,7.53-2.51,1.95-2,4.65-1.2,6.72-1.68,9.59-1.44,1v.91l4.11-.16-1.38,2.33,1.5.32Z"/><path d="M163.81,278l.12,4,3.06,6.09,4.42,3.31,2.68,4.48,1,3,2.58,3.63.64,3.88,4.57,1.15,1,3.37,2.1,3.23-.22,3.45.07,5.5-.28,1.46,1.07.56-.46-.64-2.37-1-.34-3-6.16-1.85-1.36-4.45-4.66-1.93L170,309.88l-.36-4.42-2.46-2.71-3.43-1.07-1.19-6.29-3.86-1.91-.89,2.89.92,8.72L157.4,311l-2.09,5.9,2.11,2.07-.95,1.48-.33-3.37L152.83,314l2.47-7.59-2.61-8.79,3.78-3.17-2.9-2.93-.74-5.29.84-3.77.62-2.33-2.63-3.33,2-3.12,2.28.33,1.87-1.95-3-1.54L155,269l.06-6.64L154,255.7l1.52-1.56-1.74-2.7,3.86-2.44-3.93-1.91.74-2.52-.72-2.13,2.64-2.64-2.4-2.67,2.61-2.86.43-2.66-1.74-5.09,1.57-5,2.89-3.16,3.13-1.42,2,.56,1.88,1.2,3.62-.54,1,1-.09,2.52,2.31.33.83.36,2-.75,1.3,1-.59,2.63,1.77,1,1,4.11,3.61,2.78.63,5.34,2,4.63-.22,2,1.38,3.09-3.48,4.09-2.34,5.5-1.59,5.53-4.05,1.29-1.57.71-.36,2.84-2.61,4L166,277.25ZM158.92,243l2.12-1.37,1.28-.57,2.26.87.39,3.22-.91,2.32-.34,4.91L161,261l2.35,5.74-1.43,2.3-.15.84,1.12,1.29,7.87-7.06.63-.37,0-1.74.64-1.26,3.6-6.29,3.94-3.44-1.92-4.6.44-5.66-6.66-3-4.49-3.09-3.46-3.4-4.27,2.08.81,5.27-2.38,3.87Z"/><path d="M190.12,247l.59-2.83,2.51-1-2.44-5.88,1.72-1.24L192,235l-1.77-.88.2-1.5,3.7-8.13-1.23-2.57,2.86-2.18.64-3,2.11-.69.27-2.1.73-.79-.3,2,2.9,3.11-3,3.17,2,3.36-1.46,3.31-.16,8.26-.17,8.44,1.93,9.11,3.76,9,2.79,5.09,4.25-4.53,3-10.53,3.69-9.14,5.38-6.84,2.38-5.32.6-6.13.41-1.45,1.89-.76-.93,4,2.19,5.38-.17,7-1.91,5.48,2.18,5.87-.73,6.08-2.71,5.76,1.32,5.88-3.37,3.64-.6,2.29.37,3.29,1.13,4-3.51,2.94.89,4.85-.14,1.29,1,1.73-1.19,7.08-2.2,6.94,1,2-3.07,0,1.33,4.09-3.71.64.9.23-.48,1.13v-1.22l.28-.86,1.11-7.06L217,299.8l2.56-5.56,1.81-7.6L220,277.69l2.54-8.6-2.93-4.72,1.19-6,0-3-.07-1.61,1.55-1-.24,0-.85.67-1.86,3.19.37,3.17-2.63,2L213.91,265l-1,6.21-1.29.78-.49,2-3.54,2.68-2.1,4.26-3.06-3.81-3.17-5.74.55-4.41-1.19-4.2-3.06-.51,2.53,7.28-.93,7.84-1.82,7.81.36,8.48-.56,8.39-1,7.81-.24,4.07-2.16,1.69-2-1.78-.61,3.82-1.34-1.07-.6-1.08,2.37-2.61-.66-2.74,1.49-4.15-3.44-8.28,3.61-2.4-2.88-3,2.53-1.59-.93-1.35-.15-5.86.06-5.88,1.37-5.82.42-5.93-2-3.29.92-6.54Z"/><path d="M229.83,290.25,229.6,289l1-.88,2.06-3.66-2.21-3.7.74-1.39,3.56.84-.56-3.09-.92-2,1.91-2.32,2.6-2.27-.12-5.29.08-6.79.13-6.78,2.31-4.37-.48-3.52,5.29-6.93,1-3.55-.53-1.14L241.49,229l4.1-2.13.45-2.33,2.45-1.13L249,219l.95-.81,2.89-1.22.74-1.87-.1-.41,1.06-.09,1.34,1.85-3.08,4.1.71,5.08.44,1.15,1.34-.39,4.64,4.52,1.45,3.14-1.13,5.69,1.51,4.69.86,3.29-1,6.08-3,8.54,2.36,8.6-.09.54-.31.58-.91,1.67,0,.54,2.19,2.09-.94,1-2.4,0,1,2,.38,4.4.67,10.26-2.26,3.18,2.32,4.92-1.22,3.15-.41,1.58,2,2.68-2,3.9.21,3.92L255.43,320l-.21,1,.29-.19-1.88-2.18-1.07-2.25.93-1.91,2.26-1.48.19-1.39-1.15-6.42.34-6.67-.73-2.5-2-2.82,2.06-2.58,2.49-1.91-.22-6.93-1.64-1.46-.27,3.35-2.34-.63-1.68-.43-2,2.12-.86,1.59-1.9,1.53-3.63,1.26-1.58,2-2,1.87-.68-1.53.3,1.94-3.36,2.63,2.4,5.81L236,304l-3.12,3.67.18,2.39,0,3.47,2.82,2.38-2.26,2.77.72,2.82L233.4,325l-3.31.19-.36-.57-.51,1.22-.49-2.33.87-4.18-2.4-5.69,1.45-6.1,2.89-3.19-.74-1.91L229.71,299l.55-3.8,1.4,1.29-1.26-3.12-1.59,1.42,2.32-1.94-2.7-1.31Zm14-13.64,2.33-.84,2.7.13,1.45,2.14,1-4,1.82-1.2,2.47,1.4-2-1.69-1.4-3,1.54-3.08L256,263l-1.51-3.15-.85-2.94-1.16-2.85,1.56-2.45-1.36-.57,3-2.38-1.1-2.31-1.25-2.09-3.45-.59-.2-3.21-1,4.1-3.28,6.58.54,2.53-1.57,4.65-2.65,6.43-1.86,9.53,0,1.18.62.85,1,.53,0,2.28,1.24-1.78Z"/><path d="M293.75,221l.73,1.06,2.56,0L296.9,224l.66,4,1.63,2.88,3.25,3.46.77,4.48.81,4.69-.73,7.23-4.92,3.12-2.73-.62.37-3.2,2.16-5.23-3-5.72-.08-6.5L289.33,228l-3.51.61-1.27,3.94-2.41,2.19.31,5.69-1.71.62-2.27,1.22,0,3.18-1.93,3.7-1,3.46,2.8,4-2.75.32,1.44,2.42-.61,3.62-3.07,3.91-.79,6.21,1.41,6.32,1.24,5.91.57,6-1.36,6.4,2,3.52-1,3,3.57-.75.6,4.36,2.5-3.29,1.87-3,.31-3,3.88-5,3.54-.26-.7-3.3-.22-4.23,3.9-2.66,0-4,2.87-.55,2.87,1.38,2.51,4.21-4,2.17-.29,2.55,1.7,3.33-2.23,4.38,2.37,6-.41,4.66-4.73,7.23,2.47,8.48L298,325l-1.48,3.75-1.72,2.42-.82,1.44-1.44.06.94,2.9-.3,2.54-2.47-.65-2,.34-.75-3.19,2.87-2.17,1.08-3.77-1.37-3.31-1.21-4.78,1.37-4.52,1.85-7.58-1.56-4.63,2-1.88-.39-1.37-.69.92-.93,3.8-3.84,4.9-4.66,1-.78,5.32-3.82-1.77-1.81,1-1.62-.4-.6-.51-2.51-1.5L269.72,310l-3-4.36,2.35-3.91L266,295.44l1.25-3.72.42-4.27-1.6-10.91,2.3-7.93.26-8.15.84-8.16,3.83-5.72-.12-7.07,6.09-4.34-.16-5.8,3.86-.76,1.27-2.52-.21-4.54,1.48-1.45,2.89-.47,3.59-.9.85,1.46Z"/><path d="M336.65,296.26l-.17,7.17-1.54,1.36-2.44.45-1.14,2.21-1.14,3.67-2.14,1.61-1.36,1.88-1,.32-3.18,2.47-4-.71-1.89,2.23-2.27.54-2-.78-1,2.77-1.36-1.75L308,319l1-1.69-1-2.81.34-1.68-1-.29-1.45-2.19L304,306.73l1.62-6.5-1.35-1.88,3.63-1.51-3.08-.8-.42-.94,3-6.79-.91-9.79.13-7.6-.31-6.49,2.71-7.87-.62-8.18,3.8-7.66-.78-4.24,0-4.47.84-.4L313,230l1.26-2-.54-2.09,4.08.7.38-1.87,1.44-1.53,2.45-3.7,2.17-3,1.66-.88,1.61.14,1.73,1.33,1.1-.05-.2-.62.7-1.11.72,1.73,1.17-.71,0,1.34,2.91.8,2.12,3.93-3.53,7,.07,2.5-2.53-.93-4.79-.1-3.55.22-1,0-1.32,2.22-1-.9-2.22.05,1.05,6.17-2.67,1.41.23,2.52,1,10.27-.73,7.89-1.49,3.08L313.46,265l2.3,1.4-3.17,2.16,2.51-2.23.75-.84,3.7-.42,1.53-1.37,0-3.58,2.72,1,3.72.62,1.18-2.43,2,.35.21,1.64,1.53,1,.12,2.28,1.63,6.87-2.37.61-2.87-.11-4.68,2.33-5.38-.66L313.28,277l-1.16,7.7-.18,2.87,1.15,4.79-1.8,2.18-1,5.75-1.14,4.94,3.06.65-1.08-.43,3-.17,1.79-.33,2,3.25,2.2-2.26,2-.71,1.87-.4,2.74-.13,1.17-3.13,2.22-1.14,3.05,0,.69-1.46Z"/><path d="M371.65,297l3.84,6.46-3.44,3.23-4,.54-.66,1.33H365.8l-2.77-.79-2.58,3.51-5.3,6.74-3.77,3.39-1.2.24-3.56.34-3.88,1.18-.83.51-2.71-2.21,3-2.07,1.07-3.08,1.16-2.62,2.69.49L350,312l1.53-.95-1.66-4.1,1.45-2.07,4.59-2,1.54-4.94,1-2.15,1.86-1.34-.3-2,.78-4.5,4-5.36-.32-1.25.84-1.35-1.59-5.64,1.2-8-.14-6.87-3.34-7.29-3.62-5.55L356,241.11l-1.54-3.42-3.6-.79-3.11,9.64-.95,7.7.43,7.84-1.46,8.16.68,8.37-.12,8.4L344,290.45l.47,7.2-2.74,6.77-2.12,6.88.15,4.81.6-2.93-2.4-2.37,2.45-3.94-.86-1.31-1.33-9.5,1.06-9.49,3.27-9.79-.68-8.8L339,264.44l2.4-3.48,2.18-4.5-3.71-5.56,1-3,1-2.22,1.56-3.3,2.59-2.15-.77-4.77,1.13-.7-.21-.57.8-1-1.31-1.15-1.31,1.28-2-.1-.85-5.3-3.68.13-.56-2.54-.63-2.68,2.54-2.61L337.64,219l.48-1.12,1.24-2.22,1.41,1.16,0,0,1.14-.84,2.53-.15,1.46,1.15,1,1.29-.21,3.14,1.15-3.46.8,2,1.08,1.06,1.07,1.93,1.31.77,2.88-1.85,5.51,8.86,4.73,6.84,4.3,4.54,1.8,5.84-1.08,6.43,1.83,6-1.35,7.14-.1,7.26-4.1,6.38,1.43,7.08L365,294l-4.23,5.11-.84,6.55-.3-2.89,2.88.27,5.16-1.59,3.94-.66Z"/><path d="M407.87,297.65l4.05,5.79-2.68,3.33-3.48,1.59-.77,1.07-1.31,1.9-3.27-2.28-4.43.59-5.28,6.95-1.85,5.19-3-1.4L384,322.63l-4.06,1.06-.73-.11-1.45-2.25,1.53-1.94.33-3.36,3.56-1-.3-4.36,4,1-1.17-3.26,2.09-.72,2.7-1.46.84-4.2,2.52-4.42,1.08-2,.45-2,.45-1.7.73-4.36,2.08-6.06,4,.28-1.33-2.31-.41-5.08,3.88-8-2.43-6.95-4.58-6.81-.62-7.34L392.3,242l-1.66-3.41-3.53-2.19-.52,10.37.28,7.82-1.51,7.61-2.51,8,.81,8.38-1,8.36-.57,3.58,1.38,7.29-.77,7.18-6.19,6.18.4,1.73-.37.52-2-2.67,0-4.18,2.78-1-1.07-9.48.24-9.52,1.85-9.9.09-8.68-.12-3.68-.23-3.39-1-4.65,1.5-5.29.17-2.91,2.52-2.08-2.62-3.8,3.69-2.37.79-3.75.41-1.3.44-.53.77-1.73-2.28,1.81-.66-1.82-.77-.9-2-4-1.24-1.16-3.13-.88,3-2.85-2.36-2.27,1.6-1.47-2.78-1.65,1.31,2.3,2.28.19,1.13-1.61.75.34,1.65-2,.07,2.25,1.13.93,2.05-.69,1,1.33,1.12-1.24-.47,2.76,2.26-.39.88,2L392,222l5.51,8.83,3.93,7.29,3.32,4.78,4.05,5,.06,6.34.06,6.16-1.47,7.09-1,7,.05,7.42L404.65,288l-2.21,6-3.54,5.44-4.15,5.25H398l.87-3.44,5.39-1.11,3.78-.27Z"/><path d="M411,270.88l1.85-2.08-.81-3.43,3.72-2.53-.32-1.92.54-2-1.72-3.67,3.39-2.72-.32-7.19.77-2.76,3-3.46L420,235l2.51-4.54-1.32-6,3.64-4.16,1.46,2.33.72,1.64-.41,5.1-.61,3.73-.44-.66.53,0,1-4.45,1.91-3.22,1.91-2.08,1.8.32,2.07-.26-.47-1.92,1.87.13,1.28-1.09,1.41,1.6,1,2.79.42.29,1.79,1.48,3.41,4.63,2.77,8.23,2.13,8.59-2,8.05,1.68,7-.48,7L448,276.32l-2.36,7.25-.67,8.17-2.42.46-1.78,1.8,2.5,1.07-3.81.76.66,2.61-2.46,5.12-3,4.81-4,4.52-2.2,3.73-3.4-.7-1.54,4-3.76-1.63-.9-2.73-2.75,0,.6-2.79-2.69-2.94,1.43-6.83-1.93-5.55.78-5.15,1.17-2.17-1-2.72-.41-2.87-.94-4.25-.13-4.28.85-1.91.74,3.48-1.53.82-.58-.45-.54.09-1.1-1.89L413,273.7Zm23.4-34.21-2.13-1.09-1,2.64-5.37,1.05-.49,2-1.13,2.23.64,5.09-3.94,6,.79,6.62-.59,6.45-2.53,5.57,1.42,5.77-1.66,9.73,3.36,6.74.65,6.59,3.57,4.41,2.67-1.59,3.23-4.41,2.79-4.88,1.66-5,2.95-3.63,1.06-9.12,1.37-8.16.25-8.45.63-4.29,1-3.08-2.16-1.25,1.33-1.32-2.69-5.61L438.66,240Z"/><path d="M458.21,238.81l1.2-4.81.23-2.57-1.79-3.26,1.79-1.22,1.26.7,1.76,0,.27-.13-.22-.26,1.94.57.09-1.53.31-2.53,3.83-.31-.69-2.22,1,1.11-.85.94.06.68,2.12,1.71-1.22,3.1.54,3.76-.32,2.38-1.05,2.91L467.37,240l-.52,4.33,2.58,6.82,2.22,5.79-2.78,6.76,4.79,6,1.73,6.53-.81,6.57,3.29,5.7-.07,9.75,1.76,1.51,2.43.94-1.23-3-.3-1.86v-2.56l2.16-4.2,1.49-6.43-.38-4.92-2.7-5.67.49-5.6,3.14-5.56.89-1.82-3.1-3.25-.36-2.86,3.88-2-.15-5-1-4.68,0-8.92.66-6.22L484.17,222,486,217.2l2.52-3.52,1.17.61-.05,1-.62.57.66,2.4,1.79,2.73-3.19,2.83.7,2.56,1.93,4-1.3,3.69-1.52,7.52,1,6.77V255l.66,6.72-1.5,6.62-2.6,7.22.91,7.4.48,6.05-.24,6-.59,7.07-2.76,8.16L483,314l-1.85,2.9-3.31,2.12-2.12-4.4-4.32-8.25,1.33-9.62-2-4.82-3.05-1.24,2.08-2.68-.74-8.11-1.51-5.47-1.78-5.4.12-3.3-4.05-1.6,2.49-.45-.51,3.29-2,5-2.28,3.19-.17,9.25-3,10.28.05,4-.1,4.09,1.71,2.88-.58,4.09-.95,4-.44,5.61L454.84,322l-1.64,1.05-1-.24.56,2.67-2.19-2.3,1.18-2.79-1.31-3.24-.39-5.59,3.75-5.5-.69-2.81-.85-4.6,2.18-6.35-1.68-2.52,3.4-2.88L456,279l.81-8.85L454.67,261l3.56-7.21-1-7.61Z"/><path class="cls-14" d="M235.6,174.46l-.12-3.94c0-1.29-.09-2.5-.16-3.63s-.14-2.1-.2-3l-.09-1.38-.35-.1,0-.26-.34-.1,0-.26-.35-.11,0-.26-.34-.1,0-.26-.34-.1,0-.26-.35-.11,0-.26-.34-.1,0-.26-.35-.11v-.26l-.35-.1,0-.26-.34-.1,0-.26-.35-.11v-.26l-1.33-.39a13.79,13.79,0,0,0-2.08-.41c-.82-.12-1.71-.22-2.67-.31s-1.88-.17-2.79-.22-1.69-.08-2.3-.08h-2.11l.63,12.24c-.29-.46-.56-.94-.85-1.4-1.22-2-2.51-3.93-3.82-5.83l-.49-.71-.13,0-.23-.34-.13,0-.24-.34-.12,0-.24-.35-.13,0-.24-.34-.12,0-.24-.35h-.12l-.24-.35-.13,0-.24-.34-.12,0-.24-.35h-.13l-.23-.35-.13,0-.24-.34-.12,0-.24-.35-.86-.13c-.69-.1-1.53-.2-2.5-.29s-2-.17-3-.23-1.93-.11-2.78-.14-1.5,0-1.91,0H196l.18,2.17c.1,1.14.17,2.63.21,4.45s.07,3.83.09,6,0,4.31,0,6.48c0,1.78,0,3.58,0,5.42s0,3.62,0,5.32v8.1c0,1.18,0,1.44,0,1.46v0c-.3-3.78-.61-7.23-.91-10.29-.41-4.15-.82-7.84-1.24-11s-.82-5.81-1.22-8.13-.8-4.34-1.19-6.14l-.29-1.37-.3,0-.07-.33-.29,0-.07-.32-.29,0-.07-.33-.3,0-.07-.33-.29,0-.07-.32-.3,0-.07-.33-.29,0-.07-.32-.29,0-.07-.32-.3,0-.07-.33-.29,0-.07-.32-.29,0-.07-.32-1.4-.19c-1.09-.15-2.2-.25-3.3-.32s-2.21-.09-3.29-.09c-1.91,0-3.9.09-5.92.26s-4,.39-6.1.66l-1.32.17-.35,1.29c-.49,1.76-1,3.79-1.6,6.07s-1.18,4.67-1.8,7.19-1.24,5.06-1.83,7.62-1.14,5-1.65,7.35c-.34,1.57-.66,3-.94,4.42-.37-.39-.74-.77-1.12-1.14l-.36-.36c-.12-.13-.24-.25-.37-.37l-.36-.36-.36-.37-.37-.36-.36-.36-.36-.37-.37-.36-.36-.36-.37-.37c-.52-.52-1.05-1-1.6-1.52a28.14,28.14,0,0,0-2.63-2.08l-1.47-1-1.16,1.34a17.1,17.1,0,0,1-2,1.95,9,9,0,0,1-2.24,1.34,5.54,5.54,0,0,1-2.26.46c-.13-.42-.25-.86-.35-1.33a19.78,19.78,0,0,1-.37-3.95,17,17,0,0,1,.42-3.94,9.65,9.65,0,0,1,1.13-2.81,4.77,4.77,0,0,1,1.52-1.57,3.28,3.28,0,0,1,1.77-.48,4.69,4.69,0,0,1,1.1.12l.65,1.77.19-.12.17.48.19-.12.18.48.18-.12.18.49.19-.12.17.48.19-.12.18.49.18-.12.18.48.19-.12.17.48.19-.12.18.49.19-.12.17.48.19-.12.17.48.19-.12.18.49,2.1-1.34c.7-.44,1.52-1,2.46-1.69s1.89-1.42,2.8-2.18a22.71,22.71,0,0,0,2.35-2.21l1-1.08-.72-1.26a16.59,16.59,0,0,0-3-3.78l-.36-.36c-.12-.12-.24-.25-.37-.36l-.36-.37-.36-.36c-.13-.12-.24-.25-.37-.36l-.36-.37c-.12-.12-.24-.25-.37-.36s-.23-.25-.36-.37l-.36-.36c-.12-.12-.24-.25-.37-.36a15.53,15.53,0,0,0-4.18-3,20.45,20.45,0,0,0-9.12-2.08,18.05,18.05,0,0,0-10.37,2.93,18.29,18.29,0,0,0-6.46,7.93,27.17,27.17,0,0,0-2.15,11,29.92,29.92,0,0,0,1.21,8.71,21,21,0,0,0,3.65,7.11,17.31,17.31,0,0,0,1.48,1.6l.36.36c.12.12.24.25.37.36l.36.37.36.36c.12.13.24.25.37.37l.36.36.36.36c.12.13.24.25.37.37l.36.36c.12.12.24.25.37.36a16.77,16.77,0,0,0,5,3.53,19.56,19.56,0,0,0,8.24,1.67,18.64,18.64,0,0,0,6.75-1.2,21.06,21.06,0,0,0,5.43-3l.23-.18.28,0-.06.34.42,0-.06.34.43,0-.06.33.42,0-.06.34.42,0-.06.33.43,0-.06.34.42,0-.06.34.43,0-.06.33.42,0-.06.34.42,0-.06.34.43,0-.06.33,2.23.15,2.4.12,3,.11,2.83.09c.91,0,1.62,0,2.14,0h1.76l.22-1.75c.1-.78.24-1.74.44-2.9s.42-2.45.68-3.82c.17-.87.34-1.76.53-2.65l1.35-.14.44,0c0,.34,0,.69,0,1,0,.84.07,1.63.1,2.36s.07,1.44.11,2l.13,1.86h.33l0,.37h.34l0,.36h.34l0,.36h.34l0,.37h.34l0,.36h.34l0,.36h.34l0,.37h.34l0,.36H182l0,.36h.34l0,.37h.34l0,.36h1.87c1,0,2.24,0,3.61-.08s2.69-.12,3.93-.23,2.22-.19,2.9-.27l1.9-.23-.15-1.91c-.05-.69-.1-1.37-.16-2l.39.05,0,.31.4,0,0,.31.39.05,0,.32.39.05,0,.31.4,0,0,.32.39,0,0,.31.4.05,0,.31.4,0,0,.32.39.05,0,.31.4.05,0,.31,1.93.25c.65.08,1.57.17,2.74.27s2.43.19,3.81.26,2.71.11,4,.11h2v-2c0-.67,0-1.61,0-2.84s0-2.59-.09-4.13c0,0,0-1.88-.09-3.74l1.16,2.13,1.72,3.18,1.44,2.71.18,0,.18.33.19,0,.17.33.19,0,.18.34.18,0,.18.33.19,0,.17.34.19,0,.18.33.18,0,.18.33.19,0,.18.34.18,0,.18.33.18,0,.18.33.19,0,.18.34,1,.16a21.71,21.71,0,0,0,2.49.23c.92,0,1.86.06,2.84.06h1.93l1.83-.05,1.41,0,.42-1.35a12.32,12.32,0,0,0,.42-2.72c.1-1.17.2-2.62.29-4.33s.16-3.54.21-5.54.08-4,.08-6c0-1.25,0-2.55,0-3.91S235.65,175.82,235.6,174.46Zm-39,23.48h.05l0,.29C196.64,198.13,196.64,198,196.63,197.94Z"/><path class="cls-14" d="M269.6,164.43a3.57,3.57,0,0,0-.28-.27.73.73,0,0,0-.08-.09c-.09-.1-.2-.18-.29-.28l-.07-.09-.29-.27-.08-.09a3.71,3.71,0,0,0-.29-.27.61.61,0,0,0-.07-.1c-.09-.09-.2-.17-.29-.27l-.07-.09c-.09-.1-.2-.18-.29-.27l-.08-.09a3.71,3.71,0,0,0-.29-.27.61.61,0,0,0-.07-.1c-.09-.09-.2-.17-.29-.27l-.07-.09c-.09-.1-.2-.18-.29-.27l-.08-.09c-.09-.1-.2-.18-.29-.28l-.07-.09c-.09-.09-.2-.17-.29-.27l-.08-.09a15.93,15.93,0,0,0-7-4.3,33.36,33.36,0,0,0-10-1.31c-1.32,0-2.74.05-4.24.14s-2.87.2-4.17.32-2.37.23-3.21.34l-1.9.23.15,1.91c0,.5.12,1.48.23,2.94s.24,3.25.39,5.34.32,4.37.51,6.84.38,4.94.58,7.45.4,4.93.6,7.22.38,4.32.54,6.1.31,3.17.43,4.13l.23,1.76h.31l0,.36h.32l0,.37h.32l.05.37h.31l.05.36h.32l0,.37h.32l0,.36h.31l.05.36h.32l0,.37H242l0,.36h.32l0,.36h.32l.05.37h1.76a83.06,83.06,0,0,0,12.95-.93,25.38,25.38,0,0,0,9.48-3.31,14.81,14.81,0,0,0,5.86-7,28.61,28.61,0,0,0,1.79-10.84,38.08,38.08,0,0,0-1.12-9.76A17.16,17.16,0,0,0,269.6,164.43Zm-13.51,7.88a21.84,21.84,0,0,1,.74,5.78,11.81,11.81,0,0,1-.7,4.34,4.08,4.08,0,0,1-1.21,1.65c-.2-2.6-.39-5.2-.55-7.8-.12-1.83-.24-3.54-.35-5.15h.1a7.46,7.46,0,0,1,1.64.19C255.88,171.64,256,172,256.09,172.31Z"/><path class="cls-14" d="M478.36,178.54q0-2-.09-4.08l-.12-3.94c0-1.29-.09-2.5-.17-3.63s-.13-2.1-.19-3l-.1-1.38-.34-.1,0-.26-.35-.1v-.26l-.35-.11,0-.26-.34-.1,0-.26-.35-.1v-.26l-.35-.11,0-.26-.34-.1,0-.26-.35-.11,0-.26-.34-.1,0-.26-.34-.1,0-.26-.35-.11,0-.26-1.32-.39a13.7,13.7,0,0,0-2.09-.41c-.81-.12-1.7-.22-2.66-.31s-1.89-.17-2.79-.22-1.7-.08-2.31-.08h-2.1l.62,12.24c-.28-.46-.55-.94-.84-1.4-1.22-2-2.51-3.93-3.82-5.83l-.49-.71-.13,0-.24-.34-.12,0-.24-.34-.13,0-.23-.35-.13,0-.24-.34-.12,0-.24-.35h-.13l-.24-.35-.12,0-.24-.34-.12,0-.24-.35h-.13l-.24-.35-.12,0-.24-.34-.12,0-.24-.35-.86-.13c-.69-.1-1.53-.2-2.51-.29s-1.95-.17-3-.23-1.93-.11-2.78-.14-1.5,0-1.92,0h-2.17l.18,2.17c.1,1.14.16,2.63.2,4.45,0,1.15.05,2.38.07,3.64a10.24,10.24,0,0,0-.89-2.14,10.4,10.4,0,0,0-1.87-2.33A4.17,4.17,0,0,0,436,162l-.36-.36-.37-.36-.36-.37-.36-.36c-.12-.12-.24-.25-.37-.36l-.36-.37-.36-.36c-.12-.12-.24-.25-.37-.36l-.36-.37a9.83,9.83,0,0,0-2.36-1.83,15.82,15.82,0,0,0-4.86-1.74,27.49,27.49,0,0,0-5-.47c-1.08,0-2.33,0-3.71.09l-4.2.21-4,.25c-1.24.08-2.28.16-3.1.24l-1.89.19.1,1.91c.16,3,.33,6.42.51,10.08l.43,8.89A29.08,29.08,0,0,0,404,173a20.69,20.69,0,0,0-3.54-7.23,15.45,15.45,0,0,0-1.53-1.7l-.36-.36-.37-.37c-.11-.12-.24-.24-.36-.36l-.36-.36-.37-.37-.36-.36-.36-.36c-.12-.13-.24-.25-.37-.37l-.36-.36-.36-.36a17.2,17.2,0,0,0-5.17-3.67,21.38,21.38,0,0,0-9-1.78,19.34,19.34,0,0,0-10.85,3,18.81,18.81,0,0,0-6.84,8.15c-.17.38-.33.78-.49,1.17a16.22,16.22,0,0,0-3-3.77l-.37-.36c-.12-.12-.23-.25-.36-.36l-.36-.37-.37-.36c-.12-.12-.23-.25-.36-.36l-.36-.37-.37-.36c-.12-.12-.24-.25-.36-.36l-.36-.37c-.13-.12-.24-.25-.37-.36a15.58,15.58,0,0,0-4.19-3,20.38,20.38,0,0,0-9.12-2.08,18,18,0,0,0-10.36,2.93,18.31,18.31,0,0,0-6.47,7.93,27.33,27.33,0,0,0-2.15,11,30.26,30.26,0,0,0,1.21,8.71,21,21,0,0,0,3.66,7.11,16,16,0,0,0,1.48,1.6l.36.36.36.36.37.37.36.36c.12.13.24.25.37.37l.36.36.36.36c.12.13.24.25.37.37l.36.36c.12.12.24.25.36.36a16.82,16.82,0,0,0,5,3.53,19.52,19.52,0,0,0,8.23,1.67,18.57,18.57,0,0,0,6.75-1.2,21,21,0,0,0,5.44-3,23.86,23.86,0,0,0,4-3.86l.86-1.06-.68-1.19a15.69,15.69,0,0,0-2.08-2.76c-.45-.5-.93-1-1.41-1.45l-.36-.36c-.13-.12-.24-.25-.37-.37l-.36-.36-.37-.36-.36-.37-.36-.36-.37-.36-.36-.37-.36-.36-.37-.37c-.52-.52-1.05-1-1.6-1.52a26.92,26.92,0,0,0-2.64-2.08l-1.46-1-1.16,1.34a17.9,17.9,0,0,1-2,1.95,9.37,9.37,0,0,1-2.24,1.34,5.61,5.61,0,0,1-2.26.46c-.13-.42-.25-.86-.35-1.33a19.76,19.76,0,0,1-.38-3.95,16.86,16.86,0,0,1,.43-3.94,9.2,9.2,0,0,1,1.12-2.8,4.83,4.83,0,0,1,1.53-1.58,3.27,3.27,0,0,1,1.76-.48,4.78,4.78,0,0,1,1.11.12l.65,1.77.18-.12.18.48.19-.12.17.48.19-.12.18.49.18-.12.18.48.19-.12.17.49.19-.12.18.48.19-.12.17.48.19-.12.17.49.19-.12.18.48.19-.12.17.48.19-.12.18.49,2.1-1.34c.69-.44,1.52-1,2.45-1.69s1.89-1.41,2.81-2.18c.62-.52,1.16-1,1.63-1.47a30.72,30.72,0,0,0-.83,7.21,29.9,29.9,0,0,0,2,11.22,18.28,18.28,0,0,0,3.92,6l.37.36.36.36.36.37.37.36c.11.13.24.24.36.36l.36.37.37.36c.11.13.24.24.36.36l.36.37.37.36a17.93,17.93,0,0,0,3,2.6,19.93,19.93,0,0,0,11.37,3,20.21,20.21,0,0,0,9.06-1.89,17.33,17.33,0,0,0,6.29-5.14,21.45,21.45,0,0,0,3.54-7.24A30.23,30.23,0,0,0,405,183c.11,2.15.22,4.23.33,6.22q.27,4.86.42,8.21l.08,1.91h.35l0,.36h.34l0,.37h.35v.36h.35l0,.37h.34l0,.36H408v.36h.35l0,.37h.34l0,.36h.35v.36h.35l0,.37h.35v.36h1.91c1.12,0,2.3,0,3.55,0s2.5-.1,3.67-.19a23.61,23.61,0,0,0,3.21-.45l1.6-.36,0-1.64c0-.83-.06-1.9-.13-3.21,0-.37-.05-.76-.07-1.14.11.48.21.91.28,1.27l.37,1.83.28,0,.08.4.29,0,.08.4.28,0,.08.4.28,0,.08.4.29,0,.08.39.28,0,.08.4.28,0,.08.4.29,0,.08.4.28,0,.08.4.28,0,.08.4.29,0,.08.4,1.84-.23c.18,0,.69-.12,1.54-.3l2.71-.63c1.06-.26,2.12-.56,3.13-.9a12.88,12.88,0,0,0,2.76-1.22l.63-.39.38,0,0,.32.39,0,0,.31.39.05,0,.31.4,0,0,.32.39.05,0,.31.39.05,0,.31,1.94.25c.65.08,1.57.17,2.74.27s2.42.19,3.81.26,2.71.11,3.95.11h2v-2c0-.67,0-1.61,0-2.84s-.05-2.59-.09-4.13c0,0,0-1.88-.09-3.74l1.16,2.13c.67,1.25,1.25,2.31,1.71,3.18l1.44,2.71.19,0,.18.33.18,0,.18.33.19,0,.18.34.18,0,.18.33.18,0,.18.34.19,0,.18.33.18,0,.18.33.19,0,.17.34.19,0,.18.33.18,0,.18.33.19,0,.17.34,1,.16a21.9,21.9,0,0,0,2.5.23c.92,0,1.86.06,2.83.06h1.94l1.83-.05,1.41,0,.42-1.35a12.32,12.32,0,0,0,.42-2.72c.1-1.17.19-2.62.29-4.33s.16-3.54.21-5.54.07-4,.07-6C478.39,181.2,478.38,179.9,478.36,178.54Zm-39.17-2.88c0,1.78,0,3.58,0,5.42s0,3.62,0,5.32v6.08c-.16-.44-.32-.87-.5-1.33-.52-1.39-1.07-2.79-1.65-4.19s-1.16-2.75-1.73-4c-.24-.55-.49-1.06-.72-1.54a12,12,0,0,0,3.29-3.73,13.83,13.83,0,0,0,1.34-3.16Zm-51.25-3a19.19,19.19,0,0,1,.4,4,14.46,14.46,0,0,1-.89,5.1,8.13,8.13,0,0,1-2.47,3.55,5.81,5.81,0,0,1-3.85,1.23,7.75,7.75,0,0,1-1.8-.2,16.22,16.22,0,0,1-.69-4.87,15.57,15.57,0,0,1,1-5.61,8.82,8.82,0,0,1,2.52-3.71,5.21,5.21,0,0,1,3.51-1.22,7.47,7.47,0,0,1,1.85.21A11.54,11.54,0,0,1,387.94,172.64Z"/><path class="cls-14" d="M309,163.53l-.43-.27.07-.09-.44-.27.07-.09-.43-.27.07-.1-.43-.27.07-.09-.44-.27.07-.1-.43-.26.07-.1-.44-.27.08-.09-.44-.27.07-.1-.43-.27.07-.09-.44-.27.07-.09-1.85-1.15a25.09,25.09,0,0,0-2.73-1.42,25.66,25.66,0,0,0-3.43-1.28,17.69,17.69,0,0,0-3.78-.71l-1.27-.1-.62,1.12c-.31.55-.7,1.28-1.18,2.18L289,161.48c-.3.56-.57,1.11-.85,1.67-.18-.43-.34-.84-.49-1.22l-.75-1.82-.52-1.25h-.21l-.16-.37h-.21l-.15-.37h-.21l-.16-.36h-.2l-.16-.37h-.21l-.15-.37h-.21l-.16-.37H284l-.15-.37h-.21l-.15-.36h-.21l-.16-.37h-.21l-.15-.37h-.21l-.15-.36-1.36,0a32.23,32.23,0,0,0-4.45.46,30,30,0,0,0-5.73,1.56l-1.95.73.81,1.92c.5,1.18,1.08,2.45,1.7,3.77s1.29,2.65,2,4,1.38,2.62,2.07,3.9,1.42,2.55,2.11,3.71,1.38,2.28,2,3.31q.75,1.19,1.44,2.16c-.07.89-.13,1.9-.19,3-.08,1.45-.15,3-.21,4.54s-.12,3.05-.17,4.47-.07,2.68-.07,3.7v1.67l.36.07v.29l.36.07v.3l.37.06v.3l.36.07v.29l.36.07v.3l.37.06v.3l.36.07v.3l.36.06v.3l.37.07V201l.36.07v.3l.37.06v.3l1.64.3c.72.13,1.61.24,2.63.32s2.06.13,3.1.13,1.89,0,2.7-.11a7.47,7.47,0,0,0,2.08-.4l1.11-.46.12-1.19c0-.19,0-.55,0-1.62,0-.75,0-1.6,0-2.56s0-1.91,0-2.8,0-1.76-.05-3l-.09-3.73c0-1.12-.06-2.16-.11-3.13,1.26-2.45,2.52-4.81,3.77-7s2.58-4.5,3.74-6.37,2.15-3.37,3-4.49l1.3-1.75-.43-.27Z"/><path class="cls-15" d="M151.44,186.72A24,24,0,0,0,149,184.8a18.24,18.24,0,0,1-2.28,2.19,11.33,11.33,0,0,1-2.72,1.64,7.79,7.79,0,0,1-3.07.61,5.13,5.13,0,0,1-3-.87,6.43,6.43,0,0,1-2.08-2.44,14.13,14.13,0,0,1-1.23-3.62,21.55,21.55,0,0,1-.42-4.35,18.74,18.74,0,0,1,.48-4.41,11.31,11.31,0,0,1,1.38-3.4,6.82,6.82,0,0,1,2.16-2.21,5.25,5.25,0,0,1,2.82-.78,6.24,6.24,0,0,1,2.88.63,7.47,7.47,0,0,1,2,1.49,9.43,9.43,0,0,1,1.27,1.63,8.05,8.05,0,0,1,.59,1.11c.66-.42,1.44-1,2.35-1.62s1.81-1.36,2.7-2.1a21,21,0,0,0,2.15-2,13.81,13.81,0,0,0-6-5.62,18.32,18.32,0,0,0-8.23-1.88,16,16,0,0,0-9.24,2.58,16.29,16.29,0,0,0-5.76,7.08,25.16,25.16,0,0,0-2,10.23,28,28,0,0,0,1.12,8.13,19,19,0,0,0,3.3,6.44,14.69,14.69,0,0,0,5.4,4.2,17.52,17.52,0,0,0,7.4,1.48,16.61,16.61,0,0,0,6-1.06,19.48,19.48,0,0,0,4.93-2.75,21.86,21.86,0,0,0,3.68-3.54,13.56,13.56,0,0,0-1.82-2.4A34.15,34.15,0,0,0,151.44,186.72Z"/><path class="cls-15" d="M189.34,173q-.61-4.63-1.21-8.06T187,158.88q-1.56-.21-3.15-.3t-3.18-.09c-1.86,0-3.78.09-5.75.26s-4,.38-6,.64q-.72,2.64-1.59,6.05t-1.8,7.17q-.93,3.76-1.82,7.59T162,187.53q-.76,3.51-1.35,6.39c-.39,1.92-.69,3.5-.91,4.74l2.35.12,2.94.11,2.84.09c.88,0,1.57,0,2.07,0,.1-.8.25-1.79.45-3s.43-2.48.69-3.86.54-2.74.84-4.08L173,188l1.74-.18,2.11-.16,2.24-.12c.74,0,1.43-.05,2.07-.05,0,.66,0,1.4.06,2.21s0,1.64.07,2.49.07,1.69.11,2.53.07,1.63.1,2.37.07,1.4.11,2c1,0,2.2,0,3.54-.07s2.62-.13,3.84-.23,2.16-.19,2.82-.27q-.63-8.31-1.25-14.56T189.34,173Zm-11,6.25c-1.06.06-2.09.14-3.06.24s-1.7.19-2.16.27c.18-1,.38-2,.61-3.25s.47-2.44.71-3.69.46-2.4.67-3.44.38-1.85.5-2.43l1.26-.1,1.86-.14q1-.06,1.44-.06c.06.44.12,1.25.19,2.42s.14,2.45.21,3.84.14,2.67.2,3.84.11,2,.15,2.38Q180,179.16,178.38,179.25Z"/><path class="cls-15" d="M230.61,172.52q-.06-2-.12-3.93c0-1.27-.1-2.46-.17-3.57s-.13-2.1-.19-3a13.08,13.08,0,0,0-1.79-.34q-1.18-.16-2.58-.3c-.93-.09-1.83-.16-2.71-.21s-1.61-.08-2.19-.08l1.2,23.46q-1.23-2.85-2.69-5.79t-3.09-5.89q-1.64-3-3.45-5.88t-3.76-5.75c-.66-.1-1.46-.19-2.4-.28s-1.91-.17-2.9-.23-1.9-.1-2.73-.13-1.44,0-1.84,0c.1,1.2.17,2.73.21,4.58s.07,3.85.09,6,0,4.31,0,6.49c0,1.78,0,3.59,0,5.43s0,3.61,0,5.31v8.1q0,1.35,0,1.65,1,.12,2.67.27c1.14.1,2.38.19,3.73.26s2.64.1,3.86.1c0-.66,0-1.59,0-2.8s0-2.58-.09-4.11-.08-3.1-.12-4.71-.09-3.16-.14-4.65-.1-2.81-.16-4-.12-2-.18-2.54l2.25,4.05q1.23,2.22,2.49,4.56l2.46,4.55,2.22,4.08c.68,1.25,1.25,2.31,1.72,3.19l1,1.83a20.13,20.13,0,0,0,2.26.21c.89,0,1.81.06,2.75.06H228l1.79-.05a13,13,0,0,0,.33-2.29c.1-1.15.19-2.57.28-4.26s.16-3.52.21-5.49.08-4,.08-6c0-1.24,0-2.53,0-3.88S230.65,173.87,230.61,172.52Z"/><path class="cls-15" d="M265.14,163.79A13.92,13.92,0,0,0,259,160a31.31,31.31,0,0,0-9.36-1.22c-1.28,0-2.65.05-4.11.14s-2.83.19-4.11.31-2.34.23-3.15.33c0,.5.11,1.49.22,3s.24,3.25.39,5.34.32,4.36.51,6.82.39,4.95.59,7.46.39,4.91.6,7.2.38,4.32.54,6.09.3,3.12.42,4.06a81.24,81.24,0,0,0,12.62-.9,23.44,23.44,0,0,0,8.75-3,12.79,12.79,0,0,0,5.07-6.07,26.39,26.39,0,0,0,1.64-10.07,35.83,35.83,0,0,0-1.05-9.24A15.06,15.06,0,0,0,265.14,163.79ZM259,185.18a6.21,6.21,0,0,1-2.9,3.19,12.86,12.86,0,0,1-5.62,1.23q-.25-3.36-.54-7.3t-.56-7.89q-.26-3.94-.49-7.22l1.09,0,1.15,0A7.14,7.14,0,0,1,256.3,169a10.32,10.32,0,0,1,2.72,4.8,23.76,23.76,0,0,1,.81,6.31A13.86,13.86,0,0,1,259,185.18Z"/><path class="cls-15" d="M297.79,160a15.56,15.56,0,0,0-3.34-.63c-.3.54-.69,1.26-1.16,2.15s-1,1.86-1.53,2.92-1.08,2.11-1.59,3.14-1,2-1.36,2.8-.7,1.48-.9,1.92c-.34-.66-.74-1.48-1.19-2.46s-.91-2-1.39-3.12-.95-2.17-1.38-3.21-.83-2-1.16-2.79-.58-1.42-.73-1.8a31.38,31.38,0,0,0-4.17.44,27.39,27.39,0,0,0-5.34,1.45c.49,1.18,1.05,2.41,1.66,3.69s1.25,2.58,1.94,3.89,1.36,2.6,2.05,3.87,1.38,2.48,2.07,3.64,1.35,2.25,2,3.26,1.23,1.89,1.8,2.65q-.12,1.56-.24,3.72t-.21,4.5c-.06,1.56-.12,3-.17,4.47s-.07,2.63-.07,3.63c.66.12,1.47.22,2.44.3s1.95.12,2.93.12,1.75,0,2.52-.1a6.14,6.14,0,0,0,1.5-.26c0-.2,0-.67,0-1.42s0-1.61,0-2.58,0-1.9,0-2.78,0-1.73-.05-2.91-.06-2.42-.09-3.73-.07-2.52-.13-3.62q2-4,4.05-7.57t3.78-6.45c1.18-1.91,2.2-3.46,3.09-4.64a23.81,23.81,0,0,0-2.51-1.3A25.28,25.28,0,0,0,297.79,160Z"/><path class="cls-15" d="M354.5,186.72a24,24,0,0,0-2.43-1.92,18.24,18.24,0,0,1-2.28,2.19,11.27,11.27,0,0,1-2.71,1.64,7.84,7.84,0,0,1-3.08.61,5.1,5.1,0,0,1-2.95-.87,6.45,6.45,0,0,1-2.09-2.44,14.13,14.13,0,0,1-1.23-3.62,21.55,21.55,0,0,1-.42-4.35,18.74,18.74,0,0,1,.48-4.41,11.31,11.31,0,0,1,1.38-3.4,6.82,6.82,0,0,1,2.16-2.21,5.25,5.25,0,0,1,2.82-.78,6.24,6.24,0,0,1,2.88.63,7.47,7.47,0,0,1,2,1.49,9.53,9.53,0,0,1,1.28,1.63,7.67,7.67,0,0,1,.58,1.11c.66-.42,1.45-1,2.36-1.62s1.81-1.36,2.7-2.1a20.74,20.74,0,0,0,2.14-2,13.78,13.78,0,0,0-5.95-5.62,18.36,18.36,0,0,0-8.24-1.88,16,16,0,0,0-9.24,2.58,16.29,16.29,0,0,0-5.76,7.08,25.16,25.16,0,0,0-2,10.23,28,28,0,0,0,1.13,8.13,19,19,0,0,0,3.3,6.44,14.69,14.69,0,0,0,5.4,4.2,17.48,17.48,0,0,0,7.39,1.48,16.61,16.61,0,0,0,6-1.06,19.54,19.54,0,0,0,4.94-2.75,21.78,21.78,0,0,0,3.67-3.54,13.45,13.45,0,0,0-1.81-2.4A34.3,34.3,0,0,0,354.5,186.72Z"/><path class="cls-15" d="M395.83,165a14.84,14.84,0,0,0-5.6-4.41A19.3,19.3,0,0,0,382,159a17.3,17.3,0,0,0-9.75,2.66,16.82,16.82,0,0,0-6.12,7.3,25.62,25.62,0,0,0-2.1,10.65A27.78,27.78,0,0,0,366,190.05a15.8,15.8,0,0,0,5.85,7.35A17.86,17.86,0,0,0,382,200.1a18.33,18.33,0,0,0,8.18-1.68,15.42,15.42,0,0,0,5.58-4.56,19.54,19.54,0,0,0,3.21-6.57,28.53,28.53,0,0,0,1-7.74,30.31,30.31,0,0,0-1-8A18.65,18.65,0,0,0,395.83,165Zm-5.51,19.46a10.13,10.13,0,0,1-3.07,4.39,8.86,8.86,0,0,1-10.08.21,8.12,8.12,0,0,1-2.7-4,18,18,0,0,1-.83-5.63,17.52,17.52,0,0,1,1.1-6.33,10.8,10.8,0,0,1,3.1-4.53,7.24,7.24,0,0,1,4.8-1.68,8.17,8.17,0,0,1,4.13,1,7.42,7.42,0,0,1,2.67,2.61,12,12,0,0,1,1.45,3.77,21,21,0,0,1,.45,4.39A16.4,16.4,0,0,1,390.32,184.43Z"/><path class="cls-15" d="M433.79,189.86c-.52-1.37-1.06-2.75-1.63-4.14s-1.14-2.7-1.7-3.93-1.07-2.27-1.53-3.11a9.63,9.63,0,0,0,4.19-4,11.46,11.46,0,0,0,1.57-5.82,10.05,10.05,0,0,0-1.17-5.14,8.18,8.18,0,0,0-3.1-3.08,13.92,13.92,0,0,0-4.26-1.51,25.22,25.22,0,0,0-4.64-.44q-1.59,0-3.63.09l-4.17.21-4,.24q-1.83.12-3,.24.24,4.59.51,10.1t.54,11.07q.27,5.57.54,10.44t.42,8.23c1.1,0,2.27,0,3.5,0s2.42-.09,3.57-.18a20.91,20.91,0,0,0,2.92-.41c0-.82-.06-1.87-.13-3.15s-.15-2.64-.24-4.09-.19-2.86-.29-4.23-.19-2.58-.28-3.63-.18-1.82-.26-2.3l1.13-.07c.41,0,.85-.09,1.32-.17s.93-.18,1.39-.3c.2.56.5,1.43.89,2.6s.8,2.48,1.24,3.94.89,3,1.34,4.47.84,2.94,1.18,4.25.59,2.36.75,3.16c.16,0,.62-.11,1.37-.27s1.63-.36,2.65-.61,2-.54,3-.86a11,11,0,0,0,2.32-1c-.2-.72-.5-1.65-.91-2.79S434.31,191.23,433.79,189.86Zm-8-18.57a3.86,3.86,0,0,1-1.71,1.5,11.58,11.58,0,0,1-3.11.91c-.9.16-1.67.27-2.32.32s-1.29.07-1.91.07c0-.28-.05-.68-.1-1.21s-.1-1.12-.15-1.77-.11-1.31-.17-2-.12-1.27-.18-1.83-.1-1-.12-1.35l.78-.09,1.2-.12,1.32-.09,1.14,0a20.87,20.87,0,0,1,3.05.2,3.54,3.54,0,0,1,2.05.94,3.24,3.24,0,0,1,.75,2.37A4.25,4.25,0,0,1,425.77,171.29Z"/><path class="cls-15" d="M473.36,176.57q0-2-.09-4t-.12-3.93c0-1.27-.09-2.46-.16-3.57s-.14-2.1-.2-3a12.88,12.88,0,0,0-1.78-.34q-1.18-.16-2.58-.3c-.93-.09-1.84-.16-2.72-.21s-1.61-.08-2.19-.08l1.2,23.46q-1.23-2.85-2.68-5.79T459,172.91q-1.63-3-3.45-5.88t-3.77-5.75c-.66-.1-1.46-.19-2.4-.28s-1.9-.17-2.89-.23-1.9-.1-2.73-.13-1.45,0-1.85,0c.1,1.2.17,2.73.21,4.58s.07,3.85.09,6,0,4.31,0,6.49c0,1.78,0,3.59,0,5.43s0,3.61,0,5.31v8.1q0,1.35,0,1.65,1,.12,2.67.27c1.14.1,2.39.19,3.74.26s2.63.1,3.85.1c0-.66,0-1.59,0-2.8s-.05-2.58-.09-4.11-.08-3.1-.12-4.71-.08-3.16-.13-4.65-.11-2.81-.17-4-.12-2-.18-2.54l2.25,4.05q1.23,2.22,2.49,4.56l2.46,4.55,2.22,4.08c.68,1.25,1.26,2.31,1.73,3.19l1,1.83a20.34,20.34,0,0,0,2.27.21c.89,0,1.8.06,2.74.06h1.91l1.78-.05a13,13,0,0,0,.33-2.29c.1-1.15.2-2.57.29-4.26s.16-3.52.21-5.49.07-4,.07-6C473.39,179.21,473.38,177.92,473.36,176.57Z"/><path class="cls-16" d="M140.12,197.43a18,18,0,0,1-7.61-1.53,15.28,15.28,0,0,1-5.58-4.34,19.64,19.64,0,0,1-3.39-6.6,28.67,28.67,0,0,1-1.14-8.28,25.81,25.81,0,0,1,2-10.43,16.86,16.86,0,0,1,5.93-7.29,16.59,16.59,0,0,1,9.53-2.67,18.89,18.89,0,0,1,8.45,1.93A14.37,14.37,0,0,1,154.5,164a.51.51,0,0,1-.06.59,23.11,23.11,0,0,1-2.2,2.06c-.89.73-1.8,1.45-2.72,2.12s-1.71,1.21-2.39,1.63a.42.42,0,0,1-.26.08l-.16,0a.5.5,0,0,1-.31-.31,7.18,7.18,0,0,0-.55-1,9,9,0,0,0-1.21-1.55,6.85,6.85,0,0,0-1.9-1.38,5.69,5.69,0,0,0-2.65-.58,4.79,4.79,0,0,0-2.56.71,6.2,6.2,0,0,0-2,2,11.12,11.12,0,0,0-1.32,3.26,18.26,18.26,0,0,0-.46,4.29,20.57,20.57,0,0,0,.41,4.25,13.63,13.63,0,0,0,1.18,3.49,6.06,6.06,0,0,0,1.92,2.26,4.64,4.64,0,0,0,2.68.78,7.44,7.44,0,0,0,2.88-.57,10.8,10.8,0,0,0,2.59-1.57,17.25,17.25,0,0,0,2.22-2.13.5.5,0,0,1,.66-.08,24.66,24.66,0,0,1,2.48,2,33.16,33.16,0,0,1,2.54,2.49,14.91,14.91,0,0,1,1.88,2.49.53.53,0,0,1,0,.57,23.24,23.24,0,0,1-3.76,3.62,20.34,20.34,0,0,1-5.06,2.81A17.17,17.17,0,0,1,140.12,197.43Z"/><path class="cls-14" d="M139.88,156.79a18.32,18.32,0,0,1,8.23,1.88,13.81,13.81,0,0,1,6,5.62,21,21,0,0,1-2.15,2q-1.33,1.11-2.7,2.1c-.91.66-1.69,1.2-2.35,1.62a8.05,8.05,0,0,0-.59-1.11,9.43,9.43,0,0,0-1.27-1.63,7.47,7.47,0,0,0-2-1.49,6.24,6.24,0,0,0-2.88-.63,5.25,5.25,0,0,0-2.82.78,6.82,6.82,0,0,0-2.16,2.21,11.31,11.31,0,0,0-1.38,3.4,18.74,18.74,0,0,0-.48,4.41,21.55,21.55,0,0,0,.42,4.35,14.13,14.13,0,0,0,1.23,3.62,6.43,6.43,0,0,0,2.08,2.44,5.13,5.13,0,0,0,3,.87,7.79,7.79,0,0,0,3.07-.61,11.33,11.33,0,0,0,2.72-1.64A18.24,18.24,0,0,0,148,182.8a24,24,0,0,1,2.43,1.92,34.15,34.15,0,0,1,2.5,2.46,13.56,13.56,0,0,1,1.82,2.4,21.86,21.86,0,0,1-3.68,3.54,19.48,19.48,0,0,1-4.93,2.75,16.61,16.61,0,0,1-6,1.06,17.52,17.52,0,0,1-7.4-1.48,14.69,14.69,0,0,1-5.4-4.2,19,19,0,0,1-3.3-6.44,28,28,0,0,1-1.12-8.13,25.16,25.16,0,0,1,2-10.23,16.29,16.29,0,0,1,5.76-7.08,16,16,0,0,1,9.24-2.58m0-1a17.06,17.06,0,0,0-9.81,2.76,17.32,17.32,0,0,0-6.11,7.5,26.25,26.25,0,0,0-2.06,10.63,29.25,29.25,0,0,0,1.16,8.42,20.19,20.19,0,0,0,3.48,6.77,15.77,15.77,0,0,0,5.76,4.48,18.51,18.51,0,0,0,7.82,1.58,17.73,17.73,0,0,0,6.39-1.13,20.35,20.35,0,0,0,5.18-2.89,22.7,22.7,0,0,0,3.85-3.7,1,1,0,0,0,.09-1.12,15.1,15.1,0,0,0-1.95-2.59c-.81-.88-1.68-1.73-2.58-2.53a26,26,0,0,0-2.53-2,1,1,0,0,0-.56-.17,1,1,0,0,0-.76.34,16.23,16.23,0,0,1-2.15,2.07,10.72,10.72,0,0,1-2.48,1.5,6.93,6.93,0,0,1-2.68.53,4.13,4.13,0,0,1-2.39-.69,5.51,5.51,0,0,1-1.76-2.08,13.13,13.13,0,0,1-1.14-3.36,20.3,20.3,0,0,1-.4-4.15,17.77,17.77,0,0,1,.45-4.17,10.37,10.37,0,0,1,1.25-3.11,6,6,0,0,1,1.84-1.89,4.3,4.3,0,0,1,2.3-.63,5.33,5.33,0,0,1,2.42.52,6.61,6.61,0,0,1,1.77,1.28,8.87,8.87,0,0,1,1.14,1.46,8.32,8.32,0,0,1,.51.94,1,1,0,0,0,.61.61,1.26,1.26,0,0,0,.33.05.94.94,0,0,0,.53-.16c.68-.43,1.49-1,2.41-1.65s1.85-1.39,2.75-2.14a21.81,21.81,0,0,0,2.25-2.11,1,1,0,0,0,.12-1.17,14.82,14.82,0,0,0-6.38-6,19.4,19.4,0,0,0-8.67-2Z"/><path class="cls-16" d="M180.62,197.52a.49.49,0,0,1-.5-.46c0-.59-.08-1.25-.11-2s-.06-1.53-.1-2.37-.08-1.68-.11-2.54-.05-1.68-.07-2.49l0-1.72c-.49,0-1,0-1.56.05l-2.23.12c-.74,0-1.44.1-2.1.16l-1.72.18-.73.09c-.28,1.26-.53,2.51-.76,3.73-.26,1.38-.49,2.66-.69,3.85s-.35,2.17-.45,3a.5.5,0,0,1-.49.44c-.51,0-1.2,0-2.09,0l-2.83-.09-2.95-.11-2.37-.12a.52.52,0,0,1-.36-.19.56.56,0,0,1-.1-.4c.22-1.24.53-2.82.92-4.75s.84-4,1.35-6.4,1.06-4.78,1.65-7.34,1.2-5.08,1.82-7.59,1.22-4.91,1.8-7.18,1.11-4.29,1.59-6.05a.49.49,0,0,1,.42-.36c2-.27,4.08-.48,6-.65s3.93-.26,5.79-.26c1.05,0,2.13,0,3.2.09s2.14.16,3.19.31a.5.5,0,0,1,.43.39c.38,1.77.77,3.82,1.17,6.07s.81,5,1.22,8.08.82,6.77,1.23,10.91.83,9.08,1.24,14.57a.5.5,0,0,1-.43.54c-.67.08-1.61.17-2.84.27s-2.52.18-3.87.23S181.64,197.52,180.62,197.52Zm-6-30c-.21,1-.43,2.18-.67,3.43s-1.05,5.47-1.19,6.25l1.49-.17c1-.1,2-.18,3.08-.24l2.07-.1c0-.45-.07-1.08-.11-1.88l-.2-3.84c-.07-1.39-.14-2.67-.21-3.83-.05-.83-.1-1.48-.14-1.94l-1,.05-1.85.13-.89.08C175,165.9,174.64,167.48,174.64,167.48Z"/><path class="cls-14" d="M179.63,156.49q1.59,0,3.18.09t3.15.3q.57,2.64,1.17,6.06t1.21,8.06q.61,4.63,1.23,10.89t1.25,14.56q-1,.12-2.82.27c-1.22.1-2.5.18-3.84.23s-2.52.07-3.54.07c0-.58-.08-1.24-.11-2s-.06-1.53-.1-2.37-.08-1.68-.11-2.53-.05-1.68-.07-2.49,0-1.55-.06-2.21c-.64,0-1.33,0-2.07.05l-2.24.12-2.11.16L172,186l-1.08.15q-.45,2-.84,4.08c-.26,1.38-.49,2.67-.69,3.86s-.35,2.18-.45,3c-.5,0-1.19,0-2.07,0l-2.84-.09-2.94-.11-2.35-.12c.22-1.24.52-2.82.91-4.74s.84-4,1.35-6.39,1.06-4.78,1.65-7.33,1.2-5.08,1.82-7.59,1.22-4.9,1.8-7.17,1.11-4.29,1.59-6.05q3.06-.39,6-.64c2-.17,3.89-.26,5.75-.26m-7.47,21.27q.69-.12,2.16-.27c1-.1,2-.18,3.06-.24s1.92-.1,2.58-.12c0-.42-.09-1.21-.15-2.38s-.13-2.45-.2-3.84-.14-2.67-.21-3.84-.13-2-.19-2.42q-.48,0-1.44.06l-1.86.14-1.26.1c-.12.58-.29,1.39-.5,2.43s-.43,2.19-.67,3.44-.48,2.48-.71,3.69-.43,2.29-.61,3.25m7.47-22.27c-1.88,0-3.84.09-5.83.26s-4,.39-6.06.65a1,1,0,0,0-.84.73c-.48,1.77-1,3.81-1.59,6.06s-1.18,4.66-1.8,7.18-1.24,5.07-1.82,7.6-1.15,5-1.66,7.35-.94,4.42-1.35,6.4-.7,3.53-.92,4.77a1,1,0,0,0,.2.79,1,1,0,0,0,.72.38l2.38.12,2.95.11,2.83.09c.89,0,1.6,0,2.11,0a1,1,0,0,0,1-.87c.1-.8.25-1.79.44-3s.42-2.42.69-3.83c.21-1.11.44-2.24.68-3.38l.38-.05c.49-.06,1.06-.11,1.71-.17s1.35-.12,2.09-.17,1.47-.09,2.21-.11l1.05,0c0,.39,0,.8,0,1.22,0,.81,0,1.65.07,2.5s.07,1.71.11,2.55.07,1.63.1,2.36.07,1.42.11,2a1,1,0,0,0,1,.93c1,0,2.22,0,3.57-.07s2.66-.13,3.89-.23,2.18-.19,2.86-.28a1,1,0,0,0,.87-1.06c-.41-5.5-.83-10.41-1.24-14.59s-.83-7.82-1.24-10.92-.81-5.79-1.22-8.1-.79-4.32-1.18-6.1a1,1,0,0,0-.84-.78c-1.07-.14-2.15-.25-3.23-.31s-2.17-.09-3.23-.09Zm-4.16,10.4.52,0,1.84-.13.47,0c0,.39.07.88.1,1.45.07,1.16.14,2.44.21,3.83l0,.6.17,3.24c0,.53.05,1,.07,1.37l-1.56.08c-1.07.06-2.11.15-3.1.25l-.82.08c.11-.59.23-1.22.35-1.89.23-1.21.47-2.44.71-3.68s.46-2.39.67-3.43l.05-.25c.11-.55.21-1,.29-1.44Z"/><path class="cls-16" d="M208.73,197.28c-1.22,0-2.53,0-3.88-.1s-2.63-.16-3.76-.26-2-.19-2.69-.27a.5.5,0,0,1-.43-.55c0-.1,0-.45,0-1.6v-8.1c0-1.7,0-3.47,0-5.31s0-3.65,0-5.43q0-3.27,0-6.49c0-2.15-.05-4.14-.09-6s-.12-3.38-.21-4.55a.49.49,0,0,1,.13-.38.51.51,0,0,1,.37-.16c.4,0,1,0,1.86,0s1.75.07,2.74.13,2,.14,2.91.23,1.76.19,2.43.29a.48.48,0,0,1,.34.21c1.29,1.88,2.57,3.81,3.78,5.76s2.36,3.92,3.46,5.9,2.12,4,3.1,5.92c.55,1.12,1.09,2.24,1.6,3.35l-1.06-20.77a.5.5,0,0,1,.13-.37.52.52,0,0,1,.37-.16c.58,0,1.32,0,2.21.08s1.8.12,2.74.21,1.8.19,2.6.3a14,14,0,0,1,1.86.36.49.49,0,0,1,.35.45c.06.86.13,1.84.2,2.95s.12,2.31.16,3.59l.13,3.93c0,1.35.07,2.71.09,4.06s0,2.65,0,3.89c0,2,0,4-.08,6s-.12,3.84-.21,5.5-.19,3.13-.29,4.28a12.2,12.2,0,0,1-.35,2.4.5.5,0,0,1-.46.35l-1.79.05h-1.91c-.95,0-1.87,0-2.77-.06a21.13,21.13,0,0,1-2.32-.21.56.56,0,0,1-.37-.26l-1-1.83c-.47-.88-1-2-1.72-3.2l-2.22-4.07-2.46-4.55q-1.26-2.34-2.49-4.56l-1.15-2.06c0,.09,0,.18,0,.28.06,1.15.11,2.48.16,4s.1,3,.14,4.65l.12,4.71c0,1.54.07,2.91.09,4.12s0,2.15,0,2.81A.5.5,0,0,1,208.73,197.28Z"/><path class="cls-14" d="M198.2,158.59c.4,0,1,0,1.84,0s1.74.07,2.73.13,2,.14,2.9.23,1.74.18,2.4.28q2,2.82,3.76,5.75t3.45,5.88q1.64,3,3.09,5.89t2.69,5.79l-1.2-23.46c.58,0,1.31,0,2.19.08s1.78.12,2.71.21,1.79.19,2.58.3a13.08,13.08,0,0,1,1.79.34c.06.86.12,1.85.19,3s.13,2.3.17,3.57.08,2.58.12,3.93.07,2.7.09,4,0,2.64,0,3.88q0,3-.08,6t-.21,5.49c-.09,1.69-.18,3.11-.28,4.26a13,13,0,0,1-.33,2.29l-1.79.05h-1.9c-.94,0-1.86,0-2.75-.06a20.13,20.13,0,0,1-2.26-.21l-1-1.83c-.47-.88-1-1.94-1.72-3.19l-2.22-4.08-2.46-4.55q-1.26-2.34-2.49-4.56L208,174c.06.54.12,1.39.18,2.54s.11,2.47.16,4,.1,3,.14,4.65.08,3.18.12,4.71.07,2.9.09,4.11,0,2.14,0,2.8c-1.22,0-2.51,0-3.86-.1s-2.59-.16-3.73-.26-2-.19-2.67-.27q0-.3,0-1.65v-8.1c0-1.7,0-3.47,0-5.31s0-3.65,0-5.43q0-3.27,0-6.49t-.09-6c0-1.85-.11-3.38-.21-4.58m0-1a1,1,0,0,0-1,1.08c.1,1.16.17,2.68.21,4.52s.07,3.88.09,6,0,4.3,0,6.48c0,1.78,0,3.59,0,5.43s0,3.61,0,5.31v8.1c0,1.2,0,1.49,0,1.55a1,1,0,0,0,.87,1.09c.65.09,1.54.17,2.71.28s2.4.18,3.77.25,2.68.11,3.91.11a1,1,0,0,0,1-1q0-1,0-2.82c0-1.21,0-2.59-.09-4.12s-.08-3.1-.12-4.71-.09-3.16-.14-4.66c0-.75,0-1.46-.08-2.12l.11.2q1.23,2.2,2.49,4.55l2.46,4.54,2.22,4.08c.68,1.25,1.25,2.31,1.72,3.19l1,1.83a1,1,0,0,0,.73.52,22.12,22.12,0,0,0,2.38.22q1.35.06,2.79.06h1.92l1.8-.05a1,1,0,0,0,.92-.7,12.15,12.15,0,0,0,.37-2.51c.1-1.15.2-2.6.29-4.29s.16-3.53.21-5.52.08-4,.08-6q0-1.86,0-3.9c0-1.35,0-2.71-.09-4.06s-.09-2.66-.13-3.94-.09-2.49-.16-3.6-.14-2.1-.2-3a1,1,0,0,0-.71-.89,13.28,13.28,0,0,0-1.93-.37c-.8-.12-1.69-.22-2.62-.31s-1.86-.16-2.76-.21-1.65-.08-2.24-.08a1,1,0,0,0-.73.31,1,1,0,0,0-.27.74l.93,18.25c-.17-.36-.35-.72-.52-1.07-1-2-2-4-3.11-5.94s-2.27-4-3.48-5.92-2.49-3.9-3.79-5.79a1,1,0,0,0-.68-.42c-.67-.1-1.5-.2-2.45-.29s-1.94-.17-2.93-.23-1.92-.1-2.75-.13-1.47,0-1.88,0Z"/><path class="cls-16" d="M240.5,198a.5.5,0,0,1-.5-.44c-.12-.94-.26-2.28-.42-4.08s-.34-3.8-.54-6.09-.4-4.69-.6-7.2-.4-5-.59-7.46-.36-4.74-.51-6.83-.28-3.87-.39-5.34-.18-2.45-.22-3a.51.51,0,0,1,.44-.54c.82-.1,1.87-.21,3.16-.33s2.66-.22,4.12-.31,2.86-.14,4.15-.14a32,32,0,0,1,9.51,1.24,14.4,14.4,0,0,1,6.39,3.89,15.6,15.6,0,0,1,3.51,6.64,36.39,36.39,0,0,1,1.07,9.37,27,27,0,0,1-1.68,10.26,13.32,13.32,0,0,1-5.26,6.3,23.93,23.93,0,0,1-8.93,3.1,81.32,81.32,0,0,1-12.71.91Zm7.91-32.36c.15,2,.3,4.28.46,6.7q.25,3.94.55,7.89c.19,2.44.36,4.72.51,6.82a11.8,11.8,0,0,0,4.92-1.15,5.62,5.62,0,0,0,2.67-2.94,13.25,13.25,0,0,0,.81-4.9,23.25,23.25,0,0,0-.8-6.18,9.91,9.91,0,0,0-2.58-4.58,6.66,6.66,0,0,0-4.83-1.7l-1.14,0Z"/><path class="cls-14" d="M248.6,156.82A31.31,31.31,0,0,1,258,158a13.92,13.92,0,0,1,6.18,3.75,15.06,15.06,0,0,1,3.39,6.43,35.83,35.83,0,0,1,1.05,9.24,26.39,26.39,0,0,1-1.64,10.07,12.79,12.79,0,0,1-5.07,6.07,23.44,23.44,0,0,1-8.75,3,81.24,81.24,0,0,1-12.62.9c-.12-.94-.26-2.29-.42-4.06s-.34-3.8-.54-6.09-.41-4.69-.6-7.2-.4-5-.59-7.46-.36-4.73-.51-6.82-.28-3.87-.39-5.34-.18-2.46-.22-3q1.22-.15,3.15-.33c1.28-.12,2.65-.22,4.11-.31s2.83-.14,4.11-.14m.87,30.78a12.86,12.86,0,0,0,5.62-1.23,6.21,6.21,0,0,0,2.9-3.19,13.86,13.86,0,0,0,.84-5.09,23.76,23.76,0,0,0-.81-6.31,10.32,10.32,0,0,0-2.72-4.8,7.14,7.14,0,0,0-5.18-1.85l-1.15,0-1.09,0q.24,3.27.49,7.22t.56,7.89q.28,3.94.54,7.3m-.87-31.78c-1.3,0-2.7.05-4.18.14s-2.86.2-4.14.32-2.33.23-3.18.33a1,1,0,0,0-.87,1.07c0,.5.11,1.48.22,2.95s.24,3.25.39,5.34.32,4.37.51,6.83.39,4.95.59,7.46.4,4.91.6,7.2.38,4.33.54,6.1.3,3.14.42,4.1a1,1,0,0,0,1,.87h0a83.58,83.58,0,0,0,12.79-.91,24.65,24.65,0,0,0,9.11-3.17,13.83,13.83,0,0,0,5.46-6.54,27.35,27.35,0,0,0,1.72-10.45,36.94,36.94,0,0,0-1.09-9.5,16.19,16.19,0,0,0-3.62-6.85,15,15,0,0,0-6.61-4,32.72,32.72,0,0,0-9.66-1.26Zm.35,10.33H249l1.12,0a6.15,6.15,0,0,1,4.49,1.56,9.41,9.41,0,0,1,2.44,4.35,23,23,0,0,1,.78,6.05,12.68,12.68,0,0,1-.77,4.71,5.2,5.2,0,0,1-2.44,2.69,10.93,10.93,0,0,1-4.23,1.06q-.21-3-.47-6.33c-.2-2.64-.38-5.29-.55-7.88-.15-2.22-.29-4.29-.42-6.19Z"/><path class="cls-16" d="M287.75,197c-1,0-2,0-3-.12a23.7,23.7,0,0,1-2.49-.31.49.49,0,0,1-.41-.49c0-1,0-2.22.07-3.65s.11-2.91.17-4.47.13-3.06.21-4.51.15-2.54.22-3.54c-.53-.73-1.11-1.59-1.71-2.54s-1.31-2.1-2-3.26-1.38-2.38-2.08-3.66-1.38-2.57-2.06-3.88-1.32-2.6-1.94-3.9-1.18-2.55-1.67-3.71a.47.47,0,0,1,0-.4.5.5,0,0,1,.28-.27,29,29,0,0,1,5.44-1.48,32.25,32.25,0,0,1,4.24-.44h0a.5.5,0,0,1,.46.31c.16.38.4,1,.73,1.8s.72,1.75,1.16,2.79.89,2.1,1.37,3.2,1,2.14,1.39,3.11c.26.56.5,1.07.72,1.52l.46-1c.4-.85.86-1.78,1.37-2.82s1-2.08,1.6-3.14,1.06-2,1.53-2.93.86-1.61,1.16-2.15a.5.5,0,0,1,.44-.26h0a16.36,16.36,0,0,1,3.45.65,27.46,27.46,0,0,1,3.25,1.21,24.62,24.62,0,0,1,2.56,1.34.49.49,0,0,1,.23.33.53.53,0,0,1-.09.39c-.87,1.16-1.9,2.71-3.07,4.6s-2.43,4.05-3.77,6.43-2.65,4.85-4,7.44c.06,1.07.1,2.23.13,3.49l.09,3.74c0,1.18.05,2.16.05,2.92s0,1.81,0,2.78,0,1.83,0,2.58,0,1.25,0,1.47a.48.48,0,0,1-.3.41,5.82,5.82,0,0,1-1.65.29A25.18,25.18,0,0,1,287.75,197Z"/><path class="cls-14" d="M281.06,156.88c.15.38.4,1,.73,1.8s.71,1.75,1.16,2.79.9,2.11,1.38,3.21.94,2.14,1.39,3.12.85,1.8,1.19,2.46q.3-.66.9-1.92c.4-.84.85-1.77,1.36-2.8s1-2.08,1.59-3.14,1.06-2,1.53-2.92.86-1.61,1.16-2.15a15.56,15.56,0,0,1,3.34.63,25.28,25.28,0,0,1,3.18,1.19,23.81,23.81,0,0,1,2.51,1.3c-.89,1.18-1.91,2.73-3.09,4.64s-2.44,4.06-3.78,6.45-2.69,4.91-4.05,7.57c.06,1.1.1,2.31.13,3.62s.06,2.55.09,3.73.05,2.15.05,2.91,0,1.81,0,2.78,0,1.83,0,2.58,0,1.22,0,1.42a6.14,6.14,0,0,1-1.5.26c-.77.07-1.6.1-2.52.1s-2,0-2.93-.12-1.78-.18-2.44-.3c0-1,0-2.21.07-3.63s.11-2.91.17-4.47.13-3.06.21-4.5.16-2.68.24-3.72c-.57-.76-1.16-1.64-1.8-2.65s-1.31-2.1-2-3.26-1.38-2.37-2.07-3.64-1.37-2.56-2.05-3.87-1.33-2.61-1.94-3.89-1.17-2.51-1.66-3.69a27.39,27.39,0,0,1,5.34-1.45,31.38,31.38,0,0,1,4.17-.44m0-1h0a31.87,31.87,0,0,0-4.31.45,28.77,28.77,0,0,0-5.54,1.51,1,1,0,0,0-.56.54,1,1,0,0,0,0,.78c.5,1.17,1.07,2.43,1.69,3.73s1.28,2.62,1.95,3.92,1.36,2.59,2.06,3.88,1.4,2.53,2.09,3.68,1.37,2.27,2,3.28,1.11,1.71,1.62,2.41c-.07,1-.14,2.1-.21,3.38s-.15,2.92-.21,4.51-.12,3.06-.17,4.48-.07,2.66-.07,3.66a1,1,0,0,0,.82,1c.69.12,1.54.23,2.54.31s2,.12,3,.12,1.82,0,2.61-.11a5.82,5.82,0,0,0,1.79-.33,1,1,0,0,0,.61-.82,14.6,14.6,0,0,0,0-1.52c0-.75,0-1.61,0-2.57s0-1.91,0-2.79,0-1.76-.05-2.93-.06-2.43-.09-3.74-.07-2.34-.12-3.37c1.3-2.54,2.62-5,3.91-7.3s2.59-4.53,3.76-6.42,2.18-3.41,3-4.56a1.05,1.05,0,0,0,.18-.79,1,1,0,0,0-.46-.66,22.3,22.3,0,0,0-2.62-1.36,26.62,26.62,0,0,0-3.3-1.24,16.88,16.88,0,0,0-3.56-.67h-.07a1,1,0,0,0-.88.52c-.3.54-.69,1.26-1.16,2.16s-1,1.87-1.54,2.93-1.07,2.1-1.6,3.15-1,2-1.37,2.82v0c-.09-.18-.17-.36-.26-.56-.45-1-.91-2-1.39-3.1s-.94-2.16-1.37-3.2-.82-2-1.15-2.77-.58-1.43-.74-1.82a1,1,0,0,0-.92-.61Z"/><path class="cls-16" d="M343.18,197.43a18,18,0,0,1-7.6-1.53,15.28,15.28,0,0,1-5.58-4.34,19.64,19.64,0,0,1-3.39-6.6,28.67,28.67,0,0,1-1.15-8.28,25.64,25.64,0,0,1,2-10.43,16.79,16.79,0,0,1,5.93-7.29,16.56,16.56,0,0,1,9.52-2.67,18.9,18.9,0,0,1,8.46,1.93,14.43,14.43,0,0,1,6.17,5.82.51.51,0,0,1-.07.59,21.72,21.72,0,0,1-2.19,2.06c-.9.74-1.81,1.45-2.73,2.12s-1.71,1.21-2.38,1.63a.43.43,0,0,1-.27.08l-.16,0a.56.56,0,0,1-.31-.31,6.58,6.58,0,0,0-.54-1,9,9,0,0,0-1.21-1.55,7.16,7.16,0,0,0-1.9-1.38,5.7,5.7,0,0,0-2.66-.58,4.73,4.73,0,0,0-2.55.71,6.2,6.2,0,0,0-2,2,10.85,10.85,0,0,0-1.32,3.26,18.24,18.24,0,0,0-.47,4.29,21.28,21.28,0,0,0,.41,4.25,13.63,13.63,0,0,0,1.19,3.49,6,6,0,0,0,1.92,2.26,4.63,4.63,0,0,0,2.67.78,7.36,7.36,0,0,0,2.88-.57,10.67,10.67,0,0,0,2.6-1.57,17.25,17.25,0,0,0,2.22-2.13.5.5,0,0,1,.37-.17.47.47,0,0,1,.28.09,25,25,0,0,1,2.49,2,35.09,35.09,0,0,1,2.54,2.49,14.91,14.91,0,0,1,1.88,2.49.52.52,0,0,1-.05.57,22.36,22.36,0,0,1-3.75,3.62,20.23,20.23,0,0,1-5.07,2.81A17.14,17.14,0,0,1,343.18,197.43Z"/><path class="cls-14" d="M342.94,156.79a18.36,18.36,0,0,1,8.24,1.88,13.78,13.78,0,0,1,5.95,5.62,20.74,20.74,0,0,1-2.14,2q-1.33,1.11-2.7,2.1c-.91.66-1.7,1.2-2.36,1.62a7.67,7.67,0,0,0-.58-1.11,9.53,9.53,0,0,0-1.28-1.63,7.47,7.47,0,0,0-2-1.49,6.24,6.24,0,0,0-2.88-.63,5.25,5.25,0,0,0-2.82.78,6.82,6.82,0,0,0-2.16,2.21,11.31,11.31,0,0,0-1.38,3.4,18.74,18.74,0,0,0-.48,4.41,21.55,21.55,0,0,0,.42,4.35,14.13,14.13,0,0,0,1.23,3.62,6.45,6.45,0,0,0,2.09,2.44,5.1,5.1,0,0,0,2.95.87,7.84,7.84,0,0,0,3.08-.61,11.27,11.27,0,0,0,2.71-1.64,18.24,18.24,0,0,0,2.28-2.19,24,24,0,0,1,2.43,1.92,34.3,34.3,0,0,1,2.51,2.46,13.45,13.45,0,0,1,1.81,2.4,21.78,21.78,0,0,1-3.67,3.54,19.54,19.54,0,0,1-4.94,2.75,16.61,16.61,0,0,1-6,1.06,17.48,17.48,0,0,1-7.39-1.48,14.69,14.69,0,0,1-5.4-4.2,19,19,0,0,1-3.3-6.44,28,28,0,0,1-1.13-8.13,25.16,25.16,0,0,1,2-10.23,16.29,16.29,0,0,1,5.76-7.08,16,16,0,0,1,9.24-2.58m0-1a17,17,0,0,0-9.8,2.76,17.3,17.3,0,0,0-6.11,7.5A26.25,26.25,0,0,0,325,176.68a29.24,29.24,0,0,0,1.17,8.42,20.19,20.19,0,0,0,3.48,6.77,15.77,15.77,0,0,0,5.76,4.48,18.5,18.5,0,0,0,7.81,1.58,17.66,17.66,0,0,0,6.39-1.13,20.25,20.25,0,0,0,5.19-2.89,22.63,22.63,0,0,0,3.84-3.7,1,1,0,0,0,.09-1.12,15,15,0,0,0-1.94-2.59c-.82-.88-1.68-1.73-2.58-2.53a26.37,26.37,0,0,0-2.54-2,1,1,0,0,0-.56-.17,1,1,0,0,0-.75.34,16.32,16.32,0,0,1-2.16,2.07,10.46,10.46,0,0,1-2.47,1.5,7,7,0,0,1-2.69.53,4.17,4.17,0,0,1-2.39-.69,5.68,5.68,0,0,1-1.76-2.08,13.53,13.53,0,0,1-1.14-3.36,21,21,0,0,1-.4-4.15,17.74,17.74,0,0,1,.46-4.17,10.37,10.37,0,0,1,1.25-3.11,6,6,0,0,1,1.84-1.89,4.29,4.29,0,0,1,2.29-.63,5.38,5.38,0,0,1,2.43.52,6.78,6.78,0,0,1,1.77,1.28,9.31,9.31,0,0,1,1.14,1.46,6.46,6.46,0,0,1,.5.94,1,1,0,0,0,.62.61,1.25,1.25,0,0,0,.32.05,1,1,0,0,0,.54-.16c.68-.43,1.49-1,2.41-1.65s1.84-1.39,2.75-2.14a21.81,21.81,0,0,0,2.25-2.11,1,1,0,0,0,.12-1.17,14.82,14.82,0,0,0-6.38-6,19.47,19.47,0,0,0-8.68-2Z"/><path class="cls-16" d="M381,198.6a18.41,18.41,0,0,1-10.52-2.79,16.29,16.29,0,0,1-6-7.57,28.39,28.39,0,0,1-1.92-10.66,26.26,26.26,0,0,1,2.15-10.85,17.31,17.31,0,0,1,6.3-7.52,17.82,17.82,0,0,1,10-2.74,19.87,19.87,0,0,1,8.41,1.64,15.32,15.32,0,0,1,5.77,4.56,19.21,19.21,0,0,1,3.29,6.71,30.88,30.88,0,0,1,1,8.17,29.11,29.11,0,0,1-1.05,7.88,20.12,20.12,0,0,1-3.29,6.73,15.93,15.93,0,0,1-5.76,4.71A18.87,18.87,0,0,1,381,198.6Zm.6-33.21a6.8,6.8,0,0,0-4.48,1.57,10.29,10.29,0,0,0-3,4.32,17,17,0,0,0-1.07,6.15,17.53,17.53,0,0,0,.8,5.47,7.71,7.71,0,0,0,2.54,3.74,8.36,8.36,0,0,0,9.45-.21,9.64,9.64,0,0,0,2.93-4.18,16.06,16.06,0,0,0,1-5.63,20.07,20.07,0,0,0-.44-4.29,11.31,11.31,0,0,0-1.39-3.61,7,7,0,0,0-2.49-2.44A7.73,7.73,0,0,0,381.64,165.39Z"/><path class="cls-14" d="M381,157a19.3,19.3,0,0,1,8.19,1.59,14.84,14.84,0,0,1,5.6,4.41,18.65,18.65,0,0,1,3.19,6.54,30.31,30.31,0,0,1,1,8,28.53,28.53,0,0,1-1,7.74,19.54,19.54,0,0,1-3.21,6.57,15.42,15.42,0,0,1-5.58,4.56A18.33,18.33,0,0,1,381,198.1a17.86,17.86,0,0,1-10.24-2.7,15.8,15.8,0,0,1-5.85-7.35,27.78,27.78,0,0,1-1.88-10.47,25.62,25.62,0,0,1,2.1-10.65,16.82,16.82,0,0,1,6.12-7.3A17.3,17.3,0,0,1,381,157m.09,31.53a7.83,7.83,0,0,0,5.12-1.68,10.13,10.13,0,0,0,3.07-4.39,16.4,16.4,0,0,0,1-5.81,21,21,0,0,0-.45-4.39,12,12,0,0,0-1.45-3.77,7.42,7.42,0,0,0-2.67-2.61,8.17,8.17,0,0,0-4.13-1,7.24,7.24,0,0,0-4.8,1.68,10.8,10.8,0,0,0-3.1,4.53,17.52,17.52,0,0,0-1.1,6.33,18,18,0,0,0,.83,5.63,8.12,8.12,0,0,0,2.7,4,7.81,7.81,0,0,0,5,1.47M381,156a18.38,18.38,0,0,0-10.3,2.82,17.88,17.88,0,0,0-6.48,7.73,26.75,26.75,0,0,0-2.19,11.06A29,29,0,0,0,364,188.43a16.86,16.86,0,0,0,6.22,7.8A18.94,18.94,0,0,0,381,199.1a19.44,19.44,0,0,0,8.62-1.78,16.55,16.55,0,0,0,5.94-4.86,20.55,20.55,0,0,0,3.37-6.9,29.67,29.67,0,0,0,1.07-8,31.45,31.45,0,0,0-1.05-8.3,19.7,19.7,0,0,0-3.37-6.89,16,16,0,0,0-6-4.71A20.52,20.52,0,0,0,381,156Zm.09,31.53a6.83,6.83,0,0,1-4.34-1.26,7,7,0,0,1-2.37-3.5,18.11,18.11,0,0,1,.25-11.28,9.83,9.83,0,0,1,2.82-4.12,6.16,6.16,0,0,1,4.15-1.45,7.2,7.2,0,0,1,3.63.83,6.44,6.44,0,0,1,2.32,2.26,11.38,11.38,0,0,1,1.33,3.45,20.53,20.53,0,0,1,.42,4.19,15.49,15.49,0,0,1-.95,5.45,9.29,9.29,0,0,1-2.77,4,6.8,6.8,0,0,1-4.49,1.45Z"/><path class="cls-16" d="M407.74,197.82a.5.5,0,0,1-.49-.48c-.11-2.23-.25-5-.42-8.23s-.37-6.73-.54-10.44l-.54-11.07q-.28-5.5-.52-10.09a.51.51,0,0,1,.45-.53c.81-.08,1.82-.16,3.05-.24l4-.24,4.17-.21c1.37-.06,2.59-.09,3.65-.09a26.27,26.27,0,0,1,4.73.44,14.55,14.55,0,0,1,4.41,1.57,8.82,8.82,0,0,1,3.3,3.26,10.63,10.63,0,0,1,1.23,5.4,12,12,0,0,1-1.64,6.07,10.11,10.11,0,0,1-3.94,3.95c.4.76.84,1.66,1.31,2.69.56,1.23,1.13,2.56,1.7,3.95s1.12,2.78,1.64,4.15,1,2.63,1.4,3.77.72,2.09.92,2.83a.5.5,0,0,1-.21.56,11.62,11.62,0,0,1-2.44,1.07c-1,.32-2,.61-3,.86s-1.91.46-2.67.62-1.24.26-1.4.28h-.07a.5.5,0,0,1-.49-.4c-.16-.79-.4-1.84-.74-3.14s-.74-2.73-1.18-4.23-.9-3-1.33-4.46-.86-2.77-1.25-3.94c-.3-.9-.54-1.62-.73-2.15-.33.07-.66.14-1,.19a12,12,0,0,1-1.36.17l-.59,0c.06.46.12,1.06.18,1.78.09,1.06.18,2.27.28,3.64s.2,2.78.29,4.24.17,2.81.24,4.09.11,2.35.13,3.17a.49.49,0,0,1-.39.5,22.31,22.31,0,0,1-3,.41c-1.15.09-2.36.16-3.6.19S408.85,197.82,407.74,197.82Zm7.8-33.42c0,.25,0,.54.08.86.06.56.12,1.17.18,1.84s.12,1.32.17,2,.1,1.23.15,1.76c0,.29.05.54.06.76.47,0,.94,0,1.41-.07.63-.05,1.4-.15,2.28-.31a11,11,0,0,0,3-.87,3.39,3.39,0,0,0,1.49-1.3,3.71,3.71,0,0,0,.46-1.9,2.82,2.82,0,0,0-.6-2,3.14,3.14,0,0,0-1.78-.8,19.84,19.84,0,0,0-3-.19l-1.11,0c-.44,0-.87.05-1.3.09l-1.19.12Z"/><path class="cls-14" d="M420.52,156.7a25.22,25.22,0,0,1,4.64.44,13.92,13.92,0,0,1,4.26,1.51,8.18,8.18,0,0,1,3.1,3.08,10.05,10.05,0,0,1,1.17,5.14,11.46,11.46,0,0,1-1.57,5.82,9.63,9.63,0,0,1-4.19,4c.46.84,1,1.88,1.53,3.11s1.13,2.54,1.7,3.93,1.11,2.77,1.63,4.14,1,2.62,1.4,3.76.71,2.07.91,2.79a11,11,0,0,1-2.32,1c-1,.32-2,.61-3,.86s-1.9.45-2.65.61-1.21.25-1.37.27c-.16-.8-.41-1.85-.75-3.16s-.73-2.73-1.18-4.25-.9-3-1.34-4.47-.85-2.77-1.24-3.94-.69-2-.89-2.6c-.46.12-.92.22-1.39.3s-.91.14-1.32.17l-1.13.07c.08.48.17,1.25.26,2.3s.18,2.26.28,3.63.2,2.78.29,4.23.17,2.81.24,4.09.11,2.33.13,3.15a20.91,20.91,0,0,1-2.92.41q-1.72.14-3.57.18c-1.23,0-2.4,0-3.5,0q-.15-3.36-.42-8.23t-.54-10.44q-.27-5.57-.54-11.07t-.51-10.1q1.2-.12,3-.24l4-.24,4.17-.21q2-.09,3.63-.09m-4.8,15.39c.62,0,1.26,0,1.91-.07s1.42-.16,2.32-.32a11.58,11.58,0,0,0,3.11-.91,3.86,3.86,0,0,0,1.71-1.5,4.25,4.25,0,0,0,.52-2.15,3.24,3.24,0,0,0-.75-2.37,3.54,3.54,0,0,0-2.05-.94,20.87,20.87,0,0,0-3.05-.2l-1.14,0-1.32.09-1.2.12L415,164q0,.51.12,1.35t.18,1.83c.06.66.12,1.32.17,2s.1,1.24.15,1.77.08.93.1,1.21m4.8-16.39c-1.06,0-2.3,0-3.67.09l-4.18.21-4,.24c-1.23.08-2.26.17-3.07.25a1,1,0,0,0-.9,1q.24,4.59.52,10.1l.54,11.07c.18,3.73.36,7.25.54,10.44s.31,6,.42,8.23a1,1,0,0,0,1,.95c1.1,0,2.28,0,3.52,0s2.47-.1,3.63-.19a21.57,21.57,0,0,0,3.06-.42,1,1,0,0,0,.78-1c0-.83-.06-1.9-.13-3.18s-.15-2.65-.24-4.11-.19-2.86-.29-4.24-.19-2.59-.28-3.64c-.05-.48-.09-.91-.13-1.28h.07c.44,0,.92-.09,1.42-.17l.58-.11.58,1.73c.38,1.15.8,2.47,1.24,3.92s.88,2.95,1.33,4.47.84,2.9,1.18,4.21.58,2.33.73,3.11a1,1,0,0,0,1,.8h.13c.13,0,.41-.06,1.45-.28.77-.16,1.67-.37,2.68-.62s2.07-.55,3.06-.88a11.82,11.82,0,0,0,2.54-1.12,1,1,0,0,0,.44-1.12c-.21-.74-.53-1.7-.94-2.86s-.88-2.41-1.4-3.78-1.08-2.78-1.65-4.16-1.14-2.73-1.71-4c-.38-.85-.75-1.61-1.09-2.28a11,11,0,0,0,3.71-3.9,12.51,12.51,0,0,0,1.7-6.32,11.17,11.17,0,0,0-1.3-5.65,9.19,9.19,0,0,0-3.48-3.44,15.07,15.07,0,0,0-4.57-1.63,26.29,26.29,0,0,0-4.82-.45Zm-4.44,9.14,1-.09c.43,0,.85-.07,1.28-.09l1.09,0a18.86,18.86,0,0,1,2.9.19,1.95,1.95,0,0,1,2,2.32,3.18,3.18,0,0,1-.39,1.65,3,3,0,0,1-1.28,1.1,10.77,10.77,0,0,1-2.84.83c-.86.15-1.61.25-2.23.3l-.91,0c0-.09,0-.18,0-.29-.05-.52-.09-1.11-.14-1.75s-.11-1.31-.17-2-.12-1.28-.18-1.84c0-.13,0-.25,0-.37Z"/><path class="cls-16" d="M451.39,197.28c-1.22,0-2.52,0-3.88-.1s-2.62-.16-3.75-.26-2-.19-2.69-.27a.5.5,0,0,1-.43-.55c0-.1,0-.45,0-1.6v-8.1c0-1.7,0-3.47,0-5.31s0-3.65,0-5.43q0-3.27,0-6.49c0-2.15-.05-4.14-.09-6s-.11-3.38-.2-4.55a.46.46,0,0,1,.13-.38.48.48,0,0,1,.36-.16c.41,0,1,0,1.87,0s1.75.07,2.74.13,2,.14,2.91.23,1.76.19,2.43.29a.46.46,0,0,1,.33.21c1.3,1.88,2.57,3.81,3.78,5.76s2.37,3.92,3.47,5.9,2.12,4,3.1,5.92c.55,1.12,1.09,2.24,1.6,3.35L462,159.16a.55.55,0,0,1,.14-.37.5.5,0,0,1,.36-.16c.59,0,1.33,0,2.22.08s1.8.12,2.74.21,1.8.19,2.6.3a14,14,0,0,1,1.86.36.49.49,0,0,1,.35.45c.06.86.13,1.84.2,2.95s.12,2.31.16,3.59l.12,3.93c0,1.35.07,2.71.09,4.06s0,2.65,0,3.89c0,2,0,4-.07,6s-.12,3.84-.21,5.5-.19,3.13-.29,4.28a13,13,0,0,1-.35,2.4.51.51,0,0,1-.46.35l-1.79.05H467.8c-.94,0-1.87,0-2.76-.06a21.58,21.58,0,0,1-2.33-.21.56.56,0,0,1-.36-.26l-1-1.83c-.47-.88-1.05-2-1.73-3.2l-2.22-4.07L455,182.86q-1.26-2.34-2.48-4.56l-1.15-2.06c0,.09,0,.18,0,.28.06,1.15.12,2.48.17,4s.09,3,.13,4.65l.12,4.71c0,1.54.07,2.91.09,4.12s0,2.15,0,2.81A.5.5,0,0,1,451.39,197.28Z"/><path class="cls-14" d="M440.86,158.59c.4,0,1,0,1.85,0s1.74.07,2.73.13,1.95.14,2.89.23,1.74.18,2.4.28q1.95,2.82,3.77,5.75t3.45,5.88q1.64,3,3.09,5.89t2.68,5.79l-1.2-23.46c.58,0,1.31,0,2.19.08s1.79.12,2.72.21,1.79.19,2.58.3a12.88,12.88,0,0,1,1.78.34c.06.86.13,1.85.2,3s.12,2.3.16,3.57.08,2.58.12,3.93.07,2.7.09,4,0,2.64,0,3.88q0,3-.07,6t-.21,5.49c-.09,1.69-.19,3.11-.29,4.26a13,13,0,0,1-.33,2.29l-1.78.05H467.8c-.94,0-1.85,0-2.74-.06a20.34,20.34,0,0,1-2.27-.21l-1-1.83c-.47-.88-1.05-1.94-1.73-3.19l-2.22-4.08-2.46-4.55q-1.26-2.34-2.49-4.56L450.67,174c.06.54.12,1.39.18,2.54s.12,2.47.17,4,.09,3,.13,4.65.08,3.18.12,4.71.07,2.9.09,4.11,0,2.14,0,2.8c-1.22,0-2.5,0-3.85-.1s-2.6-.16-3.74-.26-2-.19-2.67-.27q0-.3,0-1.65v-8.1c0-1.7,0-3.47,0-5.31s0-3.65,0-5.43q0-3.27,0-6.49t-.09-6c0-1.85-.11-3.38-.21-4.58m0-1a1,1,0,0,0-.73.32,1,1,0,0,0-.26.76c.09,1.16.16,2.68.2,4.52s.07,3.88.09,6,0,4.3,0,6.48c0,1.78,0,3.59,0,5.43s0,3.61,0,5.31v8.1c0,1.2,0,1.49,0,1.55a1,1,0,0,0,.87,1.09c.65.09,1.54.17,2.71.28s2.4.18,3.77.25,2.68.11,3.9.11a1,1,0,0,0,1-1q0-1,0-2.82c0-1.21-.05-2.59-.09-4.12s-.08-3.1-.12-4.71-.08-3.16-.13-4.66c0-.75,0-1.46-.08-2.12l.11.2q1.23,2.2,2.48,4.55t2.47,4.54l2.22,4.08,1.72,3.19,1,1.83a1,1,0,0,0,.72.52,22.63,22.63,0,0,0,2.38.22c.9,0,1.84.06,2.79.06h1.93l1.8-.05a1,1,0,0,0,.92-.7,12.15,12.15,0,0,0,.37-2.51c.1-1.15.2-2.6.29-4.29s.16-3.53.21-5.52.07-4,.07-6q0-1.86,0-3.9c0-1.35-.05-2.71-.09-4.06s-.08-2.66-.12-3.94-.09-2.49-.16-3.6-.14-2.1-.2-3a1,1,0,0,0-.71-.89,13.28,13.28,0,0,0-1.93-.37c-.81-.12-1.69-.22-2.63-.31s-1.85-.16-2.75-.21-1.65-.08-2.25-.08a1,1,0,0,0-.72.31,1,1,0,0,0-.28.74l.94,18.25c-.17-.36-.35-.72-.52-1.07-1-2-2-4-3.12-5.94s-2.27-4-3.47-5.92-2.49-3.9-3.79-5.79a1,1,0,0,0-.68-.42c-.67-.1-1.5-.2-2.45-.29s-1.94-.17-2.93-.23-1.92-.1-2.75-.13-1.48,0-1.89,0Z"/><path class="cls-14" d="M288,167.5a33.29,33.29,0,0,1-1.78,4.12c-.71,1.16-.06-.53.78-4.85s1,.59,1,.59"/><g class="cls-17"><path class="cls-18" d="M132.83,193.82a12.42,12.42,0,0,1-2-1.56c-.56-.56-1.17-1.25-1.86-2L128,189l-.47-.67c-.15-.24-.27-.49-.4-.74l-.81-1.51-.61-1.59c-.1-.27-.21-.53-.29-.79l-.21-.8c-.12-.53-.27-1-.37-1.54-.12-1-.3-1.94-.31-2.73l0-1.89a26,26,0,0,1,.69-4.56,24.62,24.62,0,0,1,4.37-8.76c.63-.78,1.29-1.44,1.81-2a11.94,11.94,0,0,1,2-1.6,13.12,13.12,0,0,1-1.69,1.9c-.46.61-1.06,1.29-1.63,2.08a25.22,25.22,0,0,0-1.63,2.67,24.09,24.09,0,0,0-2.25,6,27.4,27.4,0,0,0-.58,4.37v1.81c0,.75.16,1.63.24,2.6.09.47.21,1,.31,1.47l.17.78c.07.25.17.5.25.76l.54,1.55.7,1.48c.13.24.23.49.36.72l.43.67.81,1.3c.62.76,1.17,1.47,1.67,2.06A12.29,12.29,0,0,1,132.83,193.82Z"/></g><g class="cls-17"><path class="cls-18" d="M161.13,194.14c-.3-.08,3-14.22,3.83-17.33s4.59-17.11,4.88-17-3,14.19-3.82,17.3S161.42,194.21,161.13,194.14Z"/></g><g class="cls-17"><path class="cls-18" d="M182.73,193.06c-.3,0-1.48-11.35-1.68-13.86s-.9-13.9-.6-13.93,1.48,11.33,1.68,13.84S183,193,182.73,193.06Z"/></g><g class="cls-17"><path class="cls-18" d="M200.16,194.77a11.72,11.72,0,0,1-.17-2.21c-.05-1.36-.1-3.18-.16-5.09-.1-3.83-.17-8.05-.17-9.58s.05-5.73.14-9.57a57.85,57.85,0,0,1,.36-7.28,58.76,58.76,0,0,1,.41,7.28c.11,3.83.18,8.05.18,9.57C200.76,180.94,200.53,194.77,200.16,194.77Z"/></g><g class="cls-17"><path class="cls-18" d="M220.62,194.14c-.27.13-4.39-7.34-5.26-9s-4.54-9.36-4.28-9.5,4.39,7.32,5.25,9S220.89,194,220.62,194.14Z"/></g><g class="cls-17"><path class="cls-18" d="M222.2,181.25c-.3,0-1-8.15-1-10s-.26-10,0-10,1,8.14,1.05,10S222.5,181.24,222.2,181.25Z"/></g><g class="cls-17"><path class="cls-18" d="M241.65,194.77c-.3,0-1.78-14.28-2.06-17.43s-1.27-17.47-1-17.5,1.78,14.25,2.06,17.4S242,194.74,241.65,194.77Z"/></g><g class="cls-17"><path class="cls-18" d="M259,185.18c-.18-.07.43-2,.75-4.23a26.11,26.11,0,0,0,.14-5.51,21.18,21.18,0,0,0-1.16-5.36c-.77-2.09-2-3.71-1.89-3.8s1.6,1.38,2.6,3.5a17.92,17.92,0,0,1,1.54,5.56,18.27,18.27,0,0,1,0,2.38,21.81,21.81,0,0,1-.47,3.37A13.68,13.68,0,0,1,259,185.18Z"/></g><g class="cls-17"><path class="cls-18" d="M284,194a40.05,40.05,0,0,1-.09-5.53c0-1.55.06-3.27.09-4.94s.08-3.18.12-4.49c-.61-1.06-1.1-1.91-1.39-2.43-.8-1.42-2.95-5.37-4.86-9-1-1.81-1.86-3.54-2.5-4.82a10,10,0,0,1-1-2.16,10.87,10.87,0,0,1,1.34,1.95c.75,1.22,1.76,2.89,2.8,4.65,2.09,3.52,4.34,7.42,5.14,8.84l1.49,2.71c-.09,1.39-.18,3.06-.28,4.78s-.23,3.38-.33,4.93A39.42,39.42,0,0,1,284,194Z"/></g><g class="cls-17"><path class="cls-18" d="M287.44,171.72c-.27-.14,2-5.29,2.55-6.41s3.25-6,3.52-5.91-2,5.28-2.55,6.39S287.71,171.85,287.44,171.72Z"/></g><g class="cls-17"><path class="cls-18" d="M336,194a14,14,0,0,1-1.93-1.82,19,19,0,0,1-1.75-2.19,19.42,19.42,0,0,1-1.75-2.83,9.33,9.33,0,0,1-.75-1.6l-.66-1.63-.44-1.67a9.48,9.48,0,0,1-.35-1.59,25.34,25.34,0,0,1-.32-4.78c.05-.46.13-1.13.22-1.94a25.65,25.65,0,0,1,.56-2.77,23.18,23.18,0,0,1,2.79-6.25,17.7,17.7,0,0,1,4.1-4.55,8.71,8.71,0,0,1,1.62-1.06c.4-.22.63-.33.65-.3s-.18.21-.54.49a12.83,12.83,0,0,0-1.46,1.19,19.23,19.23,0,0,0-3.71,4.63,23.65,23.65,0,0,0-2.48,6.11,26.27,26.27,0,0,0-.48,2.66l-.18,1.85a27.31,27.31,0,0,0,.22,4.56,8.57,8.57,0,0,0,.29,1.53l.37,1.61.58,1.6a9.47,9.47,0,0,0,.66,1.57,21,21,0,0,0,1.56,2.83,21.53,21.53,0,0,0,1.58,2.25A13.11,13.11,0,0,1,336,194Z"/></g><g class="cls-17"><path class="cls-18" d="M370.91,194a10.5,10.5,0,0,1-1.38-2c-.19-.32-.42-.65-.62-1l-.61-1.22-.66-1.34c-.21-.46-.38-1-.58-1.45l-.57-1.51c-.14-.52-.29-1-.43-1.56a21.94,21.94,0,0,1-.6-3,20.38,20.38,0,0,1-.14-4.39,10.15,10.15,0,0,1,.21-1.78l.22-1.21c.09-.42.25-.86.38-1.33a22.28,22.28,0,0,1,1.08-2.88,25.12,25.12,0,0,1,1.6-2.81,23.77,23.77,0,0,1,3.61-4.3,9.14,9.14,0,0,1,1.9-1.53c.14.14-2.76,2.65-4.86,6.24A25,25,0,0,0,368,169.6a23.61,23.61,0,0,0-1,2.79c-.11.45-.25.87-.32,1.27s-.13.8-.18,1.15a11,11,0,0,0-.19,1.7,22.2,22.2,0,0,0,.06,4.19,21.89,21.89,0,0,0,.48,2.92q.18.75.36,1.53c.16.49.32,1,.49,1.49C369.1,190.59,371.08,193.85,370.91,194Z"/></g><g class="cls-17"><path class="cls-18" d="M389,187.06c-.16-.1.94-2,1.7-4.25l.49-1.73c.12-.58.21-1.15.31-1.67a20.34,20.34,0,0,0,.2-2.39,19.81,19.81,0,0,0-.61-5.84c-.56-2.32-1.64-4.21-1.52-4.29s1.47,1.71,2.25,4.07a17,17,0,0,1,1,6.09,16.37,16.37,0,0,1-.3,2.53c-.13.55-.26,1.14-.43,1.74s-.42,1.18-.64,1.76A13.34,13.34,0,0,1,389,187.06Z"/></g><g class="cls-17"><path class="cls-18" d="M408.89,194a63.69,63.69,0,0,1-.75-7.42c-.29-3.91-.56-8.22-.64-9.78s-.23-5.87-.33-9.79a62.82,62.82,0,0,1,0-7.47,61.82,61.82,0,0,1,.75,7.42c.29,3.9.57,8.2.64,9.75s.23,5.87.33,9.8A60.87,60.87,0,0,1,408.89,194Z"/></g><g class="cls-17"><path class="cls-18" d="M426.8,195.4c-.29.09-2.46-6.35-2.89-7.78s-2.14-8-1.85-8.08,2.46,6.33,2.89,7.77S427.09,195.31,426.8,195.4Z"/></g><g class="cls-17"><path class="cls-18" d="M426.29,169.86c-.12-.1.15-.65.3-1.26a4.87,4.87,0,0,0,.15-1.5,5.38,5.38,0,0,0-.16-1.51c-.14-.62-.4-1.17-.29-1.26s.64.32,1,1a3.89,3.89,0,0,1,.54,1.8,3.8,3.8,0,0,1-.53,1.81C426.91,169.54,426.4,170,426.29,169.86Z"/></g><g class="cls-17"><path class="cls-18" d="M442.53,194c-.3,0-.55-13.43-.55-16.39s.25-16.36.55-16.36.54,13.4.54,16.36S442.83,194,442.53,194Z"/></g><g class="cls-17"><path class="cls-18" d="M463.4,194.74c-.26.14-4.64-7.13-5.56-8.76s-4.87-9.14-4.61-9.28,4.64,7.11,5.56,8.74S463.67,194.59,463.4,194.74Z"/></g><g class="cls-17"><path class="cls-18" d="M465.93,182.52c-.3,0-1.32-8.7-1.49-10.62s-.71-10.67-.41-10.7,1.32,8.67,1.49,10.6S466.23,182.49,465.93,182.52Z"/></g></g></g></svg>